%
M48
M72
T01C0.01969
T02C0.03150
T03C0.03543
T04C0.03937
T05C0.04000
T06C0.07874
%
T01
X55000Y302524
T02
X76500Y227524
X90500Y227524
X157000Y199524
X157000Y185524
X185000Y116024
X199000Y116024
T03
X93343Y291524
X73657Y291524
T04
X140657Y247965
X150500Y247965
X160343Y247965
T05
X42000Y102524
X42000Y112524
X42000Y122524
X42000Y132524
X42000Y142524
X42000Y152524
X42000Y162524
X42000Y172524
X42000Y182524
X42000Y192524
X42000Y207524
X42000Y217524
X42000Y227524
X42000Y237524
X42000Y247524
X42000Y257524
X42000Y267524
X42000Y277524
X40000Y337524
X50000Y337524
X60000Y337524
X70000Y337524
X109000Y328524
X129000Y328524
X139000Y338524
X149000Y338524
X159000Y338524
X172000Y327024
X192000Y327024
X208000Y324524
X218000Y324524
X228000Y324524
X238000Y324524
X232000Y277524
X232000Y267524
X232000Y257524
X232000Y247524
X232000Y237524
X232000Y227524
X232000Y207524
X232000Y197524
X232000Y187524
X232000Y177524
X232000Y167524
X232000Y157524
X232000Y147524
X232000Y137524
X194000Y206024
X194000Y218524
X194000Y231024
X151500Y101024
X141500Y101024
X131500Y101024
X121500Y101024
X111500Y101024
X84000Y101024
X74000Y101024
T06
X133177Y275524
X167823Y275524
M30
