G75*
%MOIN*%
%OFA0B0*%
%FSLAX25Y25*%
%IPPOS*%
%LPD*%
%AMOC8*
5,1,8,0,0,1.08239X$1,22.5*
%
%ADD10C,0.08200*%
%ADD11R,0.07874X0.07874*%
%ADD12C,0.07700*%
%ADD13C,0.06350*%
%ADD14C,0.12800*%
%ADD15C,0.08400*%
%ADD16R,0.08200X0.08200*%
D10*
X0042000Y0102524D03*
X0042000Y0112524D03*
X0042000Y0122524D03*
X0042000Y0132524D03*
X0042000Y0142524D03*
X0042000Y0152524D03*
X0042000Y0162524D03*
X0042000Y0172524D03*
X0042000Y0182524D03*
X0042000Y0192524D03*
X0042000Y0207524D03*
X0042000Y0217524D03*
X0042000Y0227524D03*
X0042000Y0237524D03*
X0042000Y0247524D03*
X0042000Y0257524D03*
X0042000Y0267524D03*
X0042000Y0277524D03*
X0040000Y0337524D03*
X0050000Y0337524D03*
X0060000Y0337524D03*
X0109000Y0328524D03*
X0129000Y0328524D03*
X0139000Y0338524D03*
X0149000Y0338524D03*
X0159000Y0338524D03*
X0172000Y0327024D03*
X0192000Y0327024D03*
X0218000Y0324524D03*
X0228000Y0324524D03*
X0238000Y0324524D03*
X0232000Y0277524D03*
X0232000Y0267524D03*
X0232000Y0257524D03*
X0232000Y0247524D03*
X0232000Y0237524D03*
X0232000Y0227524D03*
X0232000Y0207524D03*
X0232000Y0197524D03*
X0232000Y0187524D03*
X0232000Y0177524D03*
X0232000Y0167524D03*
X0232000Y0157524D03*
X0232000Y0147524D03*
X0232000Y0137524D03*
X0194000Y0206024D03*
X0194000Y0218524D03*
X0194000Y0231024D03*
X0151500Y0101024D03*
X0141500Y0101024D03*
X0131500Y0101024D03*
X0121500Y0101024D03*
X0111500Y0101024D03*
X0084000Y0101024D03*
X0074000Y0101024D03*
D11*
X0093343Y0291524D03*
D12*
X0073657Y0291524D03*
D13*
X0076500Y0227524D03*
X0090500Y0227524D03*
X0157000Y0199524D03*
X0157000Y0185524D03*
X0185000Y0116024D03*
X0199000Y0116024D03*
D14*
X0167823Y0275524D03*
X0133177Y0275524D03*
D15*
X0140657Y0247965D03*
X0150500Y0247965D03*
X0160343Y0247965D03*
D16*
X0208000Y0324524D03*
X0070000Y0337524D03*
M02*
