G75*
%MOIN*%
%OFA0B0*%
%FSLAX25Y25*%
%IPPOS*%
%LPD*%
%AMOC8*
5,1,8,0,0,1.08239X$1,22.5*
%
%ADD10C,0.07400*%
%ADD11C,0.07600*%
%ADD12R,0.07600X0.07600*%
%ADD13C,0.05550*%
%ADD14C,0.11811*%
%ADD15R,0.07400X0.07400*%
%ADD16C,0.01000*%
%ADD17C,0.02400*%
%ADD18C,0.03969*%
%ADD19C,0.01600*%
D10*
X0042000Y0102524D03*
X0042000Y0112524D03*
X0042000Y0122524D03*
X0042000Y0132524D03*
X0042000Y0142524D03*
X0042000Y0152524D03*
X0042000Y0162524D03*
X0042000Y0172524D03*
X0042000Y0182524D03*
X0042000Y0192524D03*
X0042000Y0207524D03*
X0042000Y0217524D03*
X0042000Y0227524D03*
X0042000Y0237524D03*
X0042000Y0247524D03*
X0042000Y0257524D03*
X0042000Y0267524D03*
X0042000Y0277524D03*
X0040000Y0337524D03*
X0050000Y0337524D03*
X0060000Y0337524D03*
X0109000Y0328524D03*
X0129000Y0328524D03*
X0139000Y0338524D03*
X0149000Y0338524D03*
X0159000Y0338524D03*
X0172000Y0327024D03*
X0192000Y0327024D03*
X0218000Y0324524D03*
X0228000Y0324524D03*
X0238000Y0324524D03*
X0232000Y0277524D03*
X0232000Y0267524D03*
X0232000Y0257524D03*
X0232000Y0247524D03*
X0232000Y0237524D03*
X0232000Y0227524D03*
X0232000Y0207524D03*
X0232000Y0197524D03*
X0232000Y0187524D03*
X0232000Y0177524D03*
X0232000Y0167524D03*
X0232000Y0157524D03*
X0232000Y0147524D03*
X0232000Y0137524D03*
X0194000Y0206024D03*
X0194000Y0218524D03*
X0194000Y0231024D03*
X0160343Y0247965D03*
X0150500Y0247965D03*
X0140657Y0247965D03*
X0141500Y0101024D03*
X0131500Y0101024D03*
X0121500Y0101024D03*
X0111500Y0101024D03*
X0084000Y0101024D03*
X0074000Y0101024D03*
X0151500Y0101024D03*
D11*
X0073657Y0291524D03*
D12*
X0093343Y0291524D03*
D13*
X0090500Y0227524D03*
X0076500Y0227524D03*
X0157000Y0199524D03*
X0157000Y0185524D03*
X0185000Y0116024D03*
X0199000Y0116024D03*
D14*
X0167823Y0275524D03*
X0133177Y0275524D03*
D15*
X0070000Y0337524D03*
X0208000Y0324524D03*
D16*
X0031100Y0341424D02*
X0031100Y0095624D01*
X0241900Y0095624D01*
X0241900Y0320787D01*
X0241059Y0319946D01*
X0239074Y0319124D01*
X0236926Y0319124D01*
X0234941Y0319946D01*
X0233422Y0321465D01*
X0232891Y0322748D01*
X0232819Y0322528D01*
X0232447Y0321798D01*
X0231966Y0321136D01*
X0231388Y0320557D01*
X0230725Y0320076D01*
X0229996Y0319705D01*
X0229218Y0319452D01*
X0228500Y0319338D01*
X0228500Y0324024D01*
X0227500Y0324024D01*
X0227500Y0319338D01*
X0226782Y0319452D01*
X0226004Y0319705D01*
X0225275Y0320076D01*
X0224612Y0320557D01*
X0224034Y0321136D01*
X0223553Y0321798D01*
X0223181Y0322528D01*
X0223109Y0322748D01*
X0222578Y0321465D01*
X0221059Y0319946D01*
X0219074Y0319124D01*
X0216926Y0319124D01*
X0214941Y0319946D01*
X0213422Y0321465D01*
X0213400Y0321518D01*
X0213400Y0320119D01*
X0212404Y0319124D01*
X0203596Y0319124D01*
X0202600Y0320119D01*
X0202600Y0328928D01*
X0203596Y0329924D01*
X0212404Y0329924D01*
X0213400Y0328928D01*
X0213400Y0327529D01*
X0213422Y0327582D01*
X0214941Y0329102D01*
X0216926Y0329924D01*
X0219074Y0329924D01*
X0221059Y0329102D01*
X0222578Y0327582D01*
X0223109Y0326299D01*
X0223181Y0326520D01*
X0223553Y0327249D01*
X0224034Y0327911D01*
X0224612Y0328490D01*
X0225275Y0328971D01*
X0226004Y0329343D01*
X0226782Y0329596D01*
X0227500Y0329709D01*
X0227500Y0325024D01*
X0228500Y0325024D01*
X0228500Y0329709D01*
X0229218Y0329596D01*
X0229996Y0329343D01*
X0230725Y0328971D01*
X0231388Y0328490D01*
X0231966Y0327911D01*
X0232447Y0327249D01*
X0232819Y0326520D01*
X0232891Y0326299D01*
X0233422Y0327582D01*
X0234941Y0329102D01*
X0236926Y0329924D01*
X0239074Y0329924D01*
X0241059Y0329102D01*
X0241900Y0328260D01*
X0241900Y0341424D01*
X0163644Y0341424D01*
X0164400Y0339598D01*
X0164400Y0337449D01*
X0163578Y0335465D01*
X0162059Y0333946D01*
X0160074Y0333124D01*
X0157926Y0333124D01*
X0155941Y0333946D01*
X0154422Y0335465D01*
X0153891Y0336748D01*
X0153819Y0336528D01*
X0153447Y0335798D01*
X0152966Y0335136D01*
X0152388Y0334557D01*
X0151725Y0334076D01*
X0150996Y0333705D01*
X0150218Y0333452D01*
X0149500Y0333338D01*
X0149500Y0338024D01*
X0148500Y0338024D01*
X0148500Y0333338D01*
X0147782Y0333452D01*
X0147004Y0333705D01*
X0146275Y0334076D01*
X0145612Y0334557D01*
X0145034Y0335136D01*
X0144553Y0335798D01*
X0144181Y0336528D01*
X0144109Y0336748D01*
X0143578Y0335465D01*
X0142059Y0333946D01*
X0140074Y0333124D01*
X0137926Y0333124D01*
X0135941Y0333946D01*
X0134422Y0335465D01*
X0133600Y0337449D01*
X0133600Y0339598D01*
X0134356Y0341424D01*
X0075199Y0341424D01*
X0075200Y0341421D01*
X0075200Y0338024D01*
X0070500Y0338024D01*
X0070500Y0337024D01*
X0075200Y0337024D01*
X0075200Y0333626D01*
X0075098Y0333245D01*
X0074900Y0332903D01*
X0074621Y0332623D01*
X0074279Y0332426D01*
X0073897Y0332324D01*
X0070500Y0332324D01*
X0070500Y0337024D01*
X0069500Y0337024D01*
X0069500Y0332324D01*
X0066103Y0332324D01*
X0065721Y0332426D01*
X0065379Y0332623D01*
X0065100Y0332903D01*
X0064902Y0333245D01*
X0064800Y0333626D01*
X0064800Y0335001D01*
X0064578Y0334465D01*
X0063059Y0332946D01*
X0062900Y0332880D01*
X0062900Y0321424D01*
X0093919Y0321424D01*
X0094985Y0320982D01*
X0095801Y0320166D01*
X0096243Y0319100D01*
X0096243Y0297024D01*
X0097847Y0297024D01*
X0098843Y0296028D01*
X0098843Y0287019D01*
X0097847Y0286024D01*
X0096243Y0286024D01*
X0096243Y0262947D01*
X0095801Y0261881D01*
X0094985Y0261065D01*
X0093919Y0260624D01*
X0079400Y0260624D01*
X0079400Y0230952D01*
X0080294Y0230058D01*
X0080975Y0228414D01*
X0080975Y0226634D01*
X0080294Y0224989D01*
X0079035Y0223730D01*
X0077390Y0223049D01*
X0075610Y0223049D01*
X0073965Y0223730D01*
X0072706Y0224989D01*
X0072025Y0226634D01*
X0072025Y0228414D01*
X0072706Y0230058D01*
X0073600Y0230952D01*
X0073600Y0264100D01*
X0074041Y0265166D01*
X0074857Y0265982D01*
X0075923Y0266424D01*
X0090443Y0266424D01*
X0090443Y0286024D01*
X0088838Y0286024D01*
X0087843Y0287019D01*
X0087843Y0296028D01*
X0088838Y0297024D01*
X0090443Y0297024D01*
X0090443Y0315624D01*
X0059423Y0315624D01*
X0058357Y0316065D01*
X0057541Y0316881D01*
X0057100Y0317947D01*
X0057100Y0332880D01*
X0056941Y0332946D01*
X0055422Y0334465D01*
X0055000Y0335484D01*
X0054578Y0334465D01*
X0053059Y0332946D01*
X0051074Y0332124D01*
X0048926Y0332124D01*
X0046941Y0332946D01*
X0045422Y0334465D01*
X0044891Y0335748D01*
X0044819Y0335528D01*
X0044447Y0334798D01*
X0043966Y0334136D01*
X0043388Y0333557D01*
X0042725Y0333076D01*
X0041996Y0332705D01*
X0041218Y0332452D01*
X0040500Y0332338D01*
X0040500Y0337024D01*
X0039500Y0337024D01*
X0034814Y0337024D01*
X0034928Y0336306D01*
X0035181Y0335528D01*
X0035553Y0334798D01*
X0036034Y0334136D01*
X0036612Y0333557D01*
X0037275Y0333076D01*
X0038004Y0332705D01*
X0038782Y0332452D01*
X0039500Y0332338D01*
X0039500Y0337024D01*
X0039500Y0338024D01*
X0034814Y0338024D01*
X0034928Y0338741D01*
X0035181Y0339520D01*
X0035553Y0340249D01*
X0036034Y0340911D01*
X0036546Y0341424D01*
X0031100Y0341424D01*
X0031100Y0341154D02*
X0036277Y0341154D01*
X0035505Y0340156D02*
X0031100Y0340156D01*
X0031100Y0339157D02*
X0035063Y0339157D01*
X0034836Y0338159D02*
X0031100Y0338159D01*
X0031100Y0337160D02*
X0039500Y0337160D01*
X0039500Y0336162D02*
X0040500Y0336162D01*
X0040500Y0335163D02*
X0039500Y0335163D01*
X0039500Y0334165D02*
X0040500Y0334165D01*
X0040500Y0333166D02*
X0039500Y0333166D01*
X0037151Y0333166D02*
X0031100Y0333166D01*
X0031100Y0332168D02*
X0048819Y0332168D01*
X0046721Y0333166D02*
X0042849Y0333166D01*
X0043987Y0334165D02*
X0045722Y0334165D01*
X0045133Y0335163D02*
X0044633Y0335163D01*
X0051181Y0332168D02*
X0057100Y0332168D01*
X0057100Y0331169D02*
X0031100Y0331169D01*
X0031100Y0330171D02*
X0057100Y0330171D01*
X0057100Y0329172D02*
X0031100Y0329172D01*
X0031100Y0328174D02*
X0057100Y0328174D01*
X0057100Y0327175D02*
X0031100Y0327175D01*
X0031100Y0326177D02*
X0057100Y0326177D01*
X0057100Y0325178D02*
X0031100Y0325178D01*
X0031100Y0324180D02*
X0057100Y0324180D01*
X0057100Y0323181D02*
X0031100Y0323181D01*
X0031100Y0322183D02*
X0057100Y0322183D01*
X0057100Y0321184D02*
X0031100Y0321184D01*
X0031100Y0320186D02*
X0057100Y0320186D01*
X0057100Y0319187D02*
X0031100Y0319187D01*
X0031100Y0318189D02*
X0057100Y0318189D01*
X0057413Y0317190D02*
X0031100Y0317190D01*
X0031100Y0316192D02*
X0058231Y0316192D01*
X0062900Y0322183D02*
X0169576Y0322183D01*
X0168941Y0322446D02*
X0170926Y0321624D01*
X0173074Y0321624D01*
X0175059Y0322446D01*
X0176578Y0323965D01*
X0177400Y0325949D01*
X0177400Y0328098D01*
X0176578Y0330082D01*
X0175059Y0331602D01*
X0173074Y0332424D01*
X0170926Y0332424D01*
X0168941Y0331602D01*
X0167422Y0330082D01*
X0166600Y0328098D01*
X0166600Y0325949D01*
X0167422Y0323965D01*
X0168941Y0322446D01*
X0168206Y0323181D02*
X0110213Y0323181D01*
X0110074Y0323124D02*
X0112059Y0323946D01*
X0113578Y0325465D01*
X0114400Y0327449D01*
X0114400Y0329598D01*
X0113578Y0331582D01*
X0112059Y0333102D01*
X0110074Y0333924D01*
X0107926Y0333924D01*
X0105941Y0333102D01*
X0104422Y0331582D01*
X0103600Y0329598D01*
X0103600Y0327449D01*
X0104422Y0325465D01*
X0105941Y0323946D01*
X0107926Y0323124D01*
X0110074Y0323124D01*
X0107787Y0323181D02*
X0062900Y0323181D01*
X0062900Y0324180D02*
X0105707Y0324180D01*
X0104709Y0325178D02*
X0062900Y0325178D01*
X0062900Y0326177D02*
X0104127Y0326177D01*
X0103714Y0327175D02*
X0062900Y0327175D01*
X0062900Y0328174D02*
X0103600Y0328174D01*
X0103600Y0329172D02*
X0062900Y0329172D01*
X0062900Y0330171D02*
X0103837Y0330171D01*
X0104251Y0331169D02*
X0062900Y0331169D01*
X0062900Y0332168D02*
X0105007Y0332168D01*
X0106098Y0333166D02*
X0075053Y0333166D01*
X0075200Y0334165D02*
X0135722Y0334165D01*
X0134723Y0335163D02*
X0075200Y0335163D01*
X0075200Y0336162D02*
X0134133Y0336162D01*
X0133720Y0337160D02*
X0070500Y0337160D01*
X0070500Y0336162D02*
X0069500Y0336162D01*
X0069500Y0335163D02*
X0070500Y0335163D01*
X0070500Y0334165D02*
X0069500Y0334165D01*
X0069500Y0333166D02*
X0070500Y0333166D01*
X0064947Y0333166D02*
X0063279Y0333166D01*
X0064278Y0334165D02*
X0064800Y0334165D01*
X0056721Y0333166D02*
X0053279Y0333166D01*
X0054278Y0334165D02*
X0055722Y0334165D01*
X0055133Y0335163D02*
X0054867Y0335163D01*
X0036013Y0334165D02*
X0031100Y0334165D01*
X0031100Y0335163D02*
X0035366Y0335163D01*
X0034975Y0336162D02*
X0031100Y0336162D01*
X0031100Y0315193D02*
X0090443Y0315193D01*
X0090443Y0314195D02*
X0031100Y0314195D01*
X0031100Y0313196D02*
X0090443Y0313196D01*
X0090443Y0312198D02*
X0031100Y0312198D01*
X0031100Y0311199D02*
X0090443Y0311199D01*
X0090443Y0310201D02*
X0031100Y0310201D01*
X0031100Y0309202D02*
X0090443Y0309202D01*
X0090443Y0308204D02*
X0031100Y0308204D01*
X0031100Y0307205D02*
X0090443Y0307205D01*
X0090443Y0306207D02*
X0055736Y0306207D01*
X0055733Y0306208D02*
X0054267Y0306208D01*
X0052913Y0305647D01*
X0051877Y0304611D01*
X0051316Y0303256D01*
X0051316Y0301791D01*
X0051877Y0300437D01*
X0052500Y0299813D01*
X0052500Y0298024D01*
X0033503Y0298024D01*
X0032584Y0297643D01*
X0031881Y0296940D01*
X0031500Y0296021D01*
X0031500Y0182026D01*
X0031881Y0181107D01*
X0032584Y0180404D01*
X0033503Y0180024D01*
X0037191Y0180024D01*
X0037422Y0179465D01*
X0038941Y0177946D01*
X0039960Y0177524D01*
X0038941Y0177102D01*
X0037422Y0175582D01*
X0036600Y0173598D01*
X0036600Y0171449D01*
X0037422Y0169465D01*
X0038941Y0167946D01*
X0039960Y0167524D01*
X0038941Y0167102D01*
X0037422Y0165582D01*
X0036600Y0163598D01*
X0036600Y0161449D01*
X0037422Y0159465D01*
X0038941Y0157946D01*
X0039960Y0157524D01*
X0038941Y0157102D01*
X0037422Y0155582D01*
X0036600Y0153598D01*
X0036600Y0151449D01*
X0037422Y0149465D01*
X0038941Y0147946D01*
X0039960Y0147524D01*
X0038941Y0147102D01*
X0037422Y0145582D01*
X0036600Y0143598D01*
X0036600Y0141449D01*
X0037422Y0139465D01*
X0038941Y0137946D01*
X0040224Y0137414D01*
X0040004Y0137343D01*
X0039275Y0136971D01*
X0038612Y0136490D01*
X0038034Y0135911D01*
X0037553Y0135249D01*
X0037181Y0134520D01*
X0036928Y0133741D01*
X0036814Y0133024D01*
X0041500Y0133024D01*
X0041500Y0132024D01*
X0036814Y0132024D01*
X0036928Y0131306D01*
X0037181Y0130528D01*
X0037553Y0129798D01*
X0038034Y0129136D01*
X0038612Y0128557D01*
X0039275Y0128076D01*
X0040004Y0127705D01*
X0040224Y0127633D01*
X0038941Y0127102D01*
X0037422Y0125582D01*
X0036600Y0123598D01*
X0036600Y0121449D01*
X0037422Y0119465D01*
X0038941Y0117946D01*
X0039960Y0117524D01*
X0038941Y0117102D01*
X0037422Y0115582D01*
X0036600Y0113598D01*
X0036600Y0111449D01*
X0037422Y0109465D01*
X0038941Y0107946D01*
X0039960Y0107524D01*
X0038941Y0107102D01*
X0037422Y0105582D01*
X0036600Y0103598D01*
X0036600Y0101449D01*
X0037422Y0099465D01*
X0038941Y0097946D01*
X0040926Y0097124D01*
X0043074Y0097124D01*
X0045059Y0097946D01*
X0046578Y0099465D01*
X0047400Y0101449D01*
X0047400Y0103598D01*
X0046578Y0105582D01*
X0045059Y0107102D01*
X0044040Y0107524D01*
X0045059Y0107946D01*
X0046578Y0109465D01*
X0047400Y0111449D01*
X0047400Y0113598D01*
X0046578Y0115582D01*
X0045059Y0117102D01*
X0044040Y0117524D01*
X0045059Y0117946D01*
X0046578Y0119465D01*
X0047400Y0121449D01*
X0047400Y0123598D01*
X0046578Y0125582D01*
X0045059Y0127102D01*
X0043776Y0127633D01*
X0043996Y0127705D01*
X0044725Y0128076D01*
X0045388Y0128557D01*
X0045966Y0129136D01*
X0046447Y0129798D01*
X0046819Y0130528D01*
X0047072Y0131306D01*
X0047186Y0132024D01*
X0042500Y0132024D01*
X0042500Y0133024D01*
X0047186Y0133024D01*
X0047072Y0133741D01*
X0046819Y0134520D01*
X0046447Y0135249D01*
X0045966Y0135911D01*
X0045388Y0136490D01*
X0044725Y0136971D01*
X0043996Y0137343D01*
X0043776Y0137414D01*
X0045059Y0137946D01*
X0046578Y0139465D01*
X0046644Y0139624D01*
X0118600Y0139624D01*
X0118600Y0105667D01*
X0118441Y0105602D01*
X0116922Y0104082D01*
X0116391Y0102799D01*
X0116319Y0103020D01*
X0115947Y0103749D01*
X0115466Y0104411D01*
X0114888Y0104990D01*
X0114225Y0105471D01*
X0113496Y0105843D01*
X0112718Y0106096D01*
X0112000Y0106209D01*
X0112000Y0101524D01*
X0111000Y0101524D01*
X0111000Y0106209D01*
X0110282Y0106096D01*
X0109504Y0105843D01*
X0108775Y0105471D01*
X0108112Y0104990D01*
X0107534Y0104411D01*
X0107053Y0103749D01*
X0106681Y0103020D01*
X0106428Y0102241D01*
X0106314Y0101524D01*
X0111000Y0101524D01*
X0111000Y0100524D01*
X0106314Y0100524D01*
X0106428Y0099806D01*
X0106681Y0099028D01*
X0107053Y0098298D01*
X0107534Y0097636D01*
X0108112Y0097057D01*
X0108775Y0096576D01*
X0109504Y0096205D01*
X0110282Y0095952D01*
X0111000Y0095838D01*
X0111000Y0100524D01*
X0112000Y0100524D01*
X0112000Y0095838D01*
X0112718Y0095952D01*
X0113496Y0096205D01*
X0114225Y0096576D01*
X0114888Y0097057D01*
X0115466Y0097636D01*
X0115947Y0098298D01*
X0116319Y0099028D01*
X0116391Y0099248D01*
X0116922Y0097965D01*
X0118441Y0096446D01*
X0120426Y0095624D01*
X0122574Y0095624D01*
X0124559Y0096446D01*
X0126078Y0097965D01*
X0126500Y0098984D01*
X0126922Y0097965D01*
X0128441Y0096446D01*
X0130426Y0095624D01*
X0132574Y0095624D01*
X0134559Y0096446D01*
X0136078Y0097965D01*
X0136500Y0098984D01*
X0136922Y0097965D01*
X0138441Y0096446D01*
X0140426Y0095624D01*
X0142574Y0095624D01*
X0144559Y0096446D01*
X0146078Y0097965D01*
X0146500Y0098984D01*
X0146922Y0097965D01*
X0148441Y0096446D01*
X0150426Y0095624D01*
X0152574Y0095624D01*
X0154559Y0096446D01*
X0156078Y0097965D01*
X0156900Y0099949D01*
X0156900Y0102098D01*
X0156078Y0104082D01*
X0154559Y0105602D01*
X0154400Y0105667D01*
X0154400Y0173100D01*
X0153958Y0174166D01*
X0153143Y0174982D01*
X0152077Y0175424D01*
X0046644Y0175424D01*
X0046578Y0175582D01*
X0045059Y0177102D01*
X0044040Y0177524D01*
X0045059Y0177946D01*
X0046578Y0179465D01*
X0047400Y0181449D01*
X0047400Y0183598D01*
X0046578Y0185582D01*
X0045059Y0187102D01*
X0044040Y0187524D01*
X0045059Y0187946D01*
X0046578Y0189465D01*
X0047400Y0191449D01*
X0047400Y0193598D01*
X0046578Y0195582D01*
X0045059Y0197102D01*
X0043074Y0197924D01*
X0040926Y0197924D01*
X0038941Y0197102D01*
X0037422Y0195582D01*
X0036600Y0193598D01*
X0036600Y0191449D01*
X0037422Y0189465D01*
X0038941Y0187946D01*
X0039960Y0187524D01*
X0038941Y0187102D01*
X0037422Y0185582D01*
X0037191Y0185024D01*
X0036500Y0185024D01*
X0036500Y0293024D01*
X0055497Y0293024D01*
X0056416Y0293404D01*
X0057119Y0294107D01*
X0057500Y0295026D01*
X0057500Y0299813D01*
X0058123Y0300437D01*
X0058684Y0301791D01*
X0058684Y0303256D01*
X0058123Y0304611D01*
X0057087Y0305647D01*
X0055733Y0306208D01*
X0054264Y0306207D02*
X0031100Y0306207D01*
X0031100Y0305208D02*
X0052474Y0305208D01*
X0051711Y0304210D02*
X0031100Y0304210D01*
X0031100Y0303211D02*
X0051316Y0303211D01*
X0051316Y0302212D02*
X0031100Y0302212D01*
X0031100Y0301214D02*
X0051555Y0301214D01*
X0052098Y0300215D02*
X0031100Y0300215D01*
X0031100Y0299217D02*
X0052500Y0299217D01*
X0052500Y0298218D02*
X0031100Y0298218D01*
X0031100Y0297220D02*
X0032161Y0297220D01*
X0031583Y0296221D02*
X0031100Y0296221D01*
X0031100Y0295223D02*
X0031500Y0295223D01*
X0031500Y0294224D02*
X0031100Y0294224D01*
X0031100Y0293226D02*
X0031500Y0293226D01*
X0031500Y0292227D02*
X0031100Y0292227D01*
X0031100Y0291229D02*
X0031500Y0291229D01*
X0031500Y0290230D02*
X0031100Y0290230D01*
X0031100Y0289232D02*
X0031500Y0289232D01*
X0031500Y0288233D02*
X0031100Y0288233D01*
X0031100Y0287235D02*
X0031500Y0287235D01*
X0031500Y0286236D02*
X0031100Y0286236D01*
X0031100Y0285238D02*
X0031500Y0285238D01*
X0031500Y0284239D02*
X0031100Y0284239D01*
X0031100Y0283241D02*
X0031500Y0283241D01*
X0031500Y0282242D02*
X0031100Y0282242D01*
X0031100Y0281244D02*
X0031500Y0281244D01*
X0031500Y0280245D02*
X0031100Y0280245D01*
X0031100Y0279247D02*
X0031500Y0279247D01*
X0031500Y0278248D02*
X0031100Y0278248D01*
X0031100Y0277250D02*
X0031500Y0277250D01*
X0031500Y0276251D02*
X0031100Y0276251D01*
X0031100Y0275253D02*
X0031500Y0275253D01*
X0031500Y0274254D02*
X0031100Y0274254D01*
X0031100Y0273256D02*
X0031500Y0273256D01*
X0031500Y0272257D02*
X0031100Y0272257D01*
X0031100Y0271259D02*
X0031500Y0271259D01*
X0031500Y0270260D02*
X0031100Y0270260D01*
X0031100Y0269262D02*
X0031500Y0269262D01*
X0031500Y0268263D02*
X0031100Y0268263D01*
X0031100Y0267265D02*
X0031500Y0267265D01*
X0031500Y0266266D02*
X0031100Y0266266D01*
X0031100Y0265268D02*
X0031500Y0265268D01*
X0031500Y0264269D02*
X0031100Y0264269D01*
X0031100Y0263271D02*
X0031500Y0263271D01*
X0031500Y0262272D02*
X0031100Y0262272D01*
X0031100Y0261274D02*
X0031500Y0261274D01*
X0031500Y0260275D02*
X0031100Y0260275D01*
X0031100Y0259277D02*
X0031500Y0259277D01*
X0031500Y0258278D02*
X0031100Y0258278D01*
X0031100Y0257279D02*
X0031500Y0257279D01*
X0031500Y0256281D02*
X0031100Y0256281D01*
X0031100Y0255282D02*
X0031500Y0255282D01*
X0031500Y0254284D02*
X0031100Y0254284D01*
X0031100Y0253285D02*
X0031500Y0253285D01*
X0031500Y0252287D02*
X0031100Y0252287D01*
X0031100Y0251288D02*
X0031500Y0251288D01*
X0031500Y0250290D02*
X0031100Y0250290D01*
X0031100Y0249291D02*
X0031500Y0249291D01*
X0031500Y0248293D02*
X0031100Y0248293D01*
X0031100Y0247294D02*
X0031500Y0247294D01*
X0031500Y0246296D02*
X0031100Y0246296D01*
X0031100Y0245297D02*
X0031500Y0245297D01*
X0031500Y0244299D02*
X0031100Y0244299D01*
X0031100Y0243300D02*
X0031500Y0243300D01*
X0031500Y0242302D02*
X0031100Y0242302D01*
X0031100Y0241303D02*
X0031500Y0241303D01*
X0031500Y0240305D02*
X0031100Y0240305D01*
X0031100Y0239306D02*
X0031500Y0239306D01*
X0031500Y0238308D02*
X0031100Y0238308D01*
X0031100Y0237309D02*
X0031500Y0237309D01*
X0031500Y0236311D02*
X0031100Y0236311D01*
X0031100Y0235312D02*
X0031500Y0235312D01*
X0031500Y0234314D02*
X0031100Y0234314D01*
X0031100Y0233315D02*
X0031500Y0233315D01*
X0031500Y0232317D02*
X0031100Y0232317D01*
X0031100Y0231318D02*
X0031500Y0231318D01*
X0031500Y0230320D02*
X0031100Y0230320D01*
X0031100Y0229321D02*
X0031500Y0229321D01*
X0031500Y0228323D02*
X0031100Y0228323D01*
X0031100Y0227324D02*
X0031500Y0227324D01*
X0031500Y0226326D02*
X0031100Y0226326D01*
X0031100Y0225327D02*
X0031500Y0225327D01*
X0031500Y0224329D02*
X0031100Y0224329D01*
X0031100Y0223330D02*
X0031500Y0223330D01*
X0031500Y0222332D02*
X0031100Y0222332D01*
X0031100Y0221333D02*
X0031500Y0221333D01*
X0031500Y0220335D02*
X0031100Y0220335D01*
X0031100Y0219336D02*
X0031500Y0219336D01*
X0031500Y0218338D02*
X0031100Y0218338D01*
X0031100Y0217339D02*
X0031500Y0217339D01*
X0031500Y0216341D02*
X0031100Y0216341D01*
X0031100Y0215342D02*
X0031500Y0215342D01*
X0031500Y0214343D02*
X0031100Y0214343D01*
X0031100Y0213345D02*
X0031500Y0213345D01*
X0031500Y0212346D02*
X0031100Y0212346D01*
X0031100Y0211348D02*
X0031500Y0211348D01*
X0031500Y0210349D02*
X0031100Y0210349D01*
X0031100Y0209351D02*
X0031500Y0209351D01*
X0031500Y0208352D02*
X0031100Y0208352D01*
X0031100Y0207354D02*
X0031500Y0207354D01*
X0031500Y0206355D02*
X0031100Y0206355D01*
X0031100Y0205357D02*
X0031500Y0205357D01*
X0031500Y0204358D02*
X0031100Y0204358D01*
X0031100Y0203360D02*
X0031500Y0203360D01*
X0031500Y0202361D02*
X0031100Y0202361D01*
X0031100Y0201363D02*
X0031500Y0201363D01*
X0031500Y0200364D02*
X0031100Y0200364D01*
X0031100Y0199366D02*
X0031500Y0199366D01*
X0031500Y0198367D02*
X0031100Y0198367D01*
X0031100Y0197369D02*
X0031500Y0197369D01*
X0031500Y0196370D02*
X0031100Y0196370D01*
X0031100Y0195372D02*
X0031500Y0195372D01*
X0031500Y0194373D02*
X0031100Y0194373D01*
X0031100Y0193375D02*
X0031500Y0193375D01*
X0031500Y0192376D02*
X0031100Y0192376D01*
X0031100Y0191378D02*
X0031500Y0191378D01*
X0031500Y0190379D02*
X0031100Y0190379D01*
X0031100Y0189381D02*
X0031500Y0189381D01*
X0031500Y0188382D02*
X0031100Y0188382D01*
X0031100Y0187384D02*
X0031500Y0187384D01*
X0031500Y0186385D02*
X0031100Y0186385D01*
X0031100Y0185387D02*
X0031500Y0185387D01*
X0031500Y0184388D02*
X0031100Y0184388D01*
X0031100Y0183390D02*
X0031500Y0183390D01*
X0031500Y0182391D02*
X0031100Y0182391D01*
X0031100Y0181393D02*
X0031762Y0181393D01*
X0031100Y0180394D02*
X0032608Y0180394D01*
X0031100Y0179396D02*
X0037491Y0179396D01*
X0038490Y0178397D02*
X0031100Y0178397D01*
X0031100Y0177399D02*
X0039658Y0177399D01*
X0038240Y0176400D02*
X0031100Y0176400D01*
X0031100Y0175402D02*
X0037347Y0175402D01*
X0036934Y0174403D02*
X0031100Y0174403D01*
X0031100Y0173405D02*
X0036600Y0173405D01*
X0036600Y0172406D02*
X0031100Y0172406D01*
X0031100Y0171408D02*
X0036617Y0171408D01*
X0037031Y0170409D02*
X0031100Y0170409D01*
X0031100Y0169410D02*
X0037476Y0169410D01*
X0038475Y0168412D02*
X0031100Y0168412D01*
X0031100Y0167413D02*
X0039694Y0167413D01*
X0038255Y0166415D02*
X0031100Y0166415D01*
X0031100Y0165416D02*
X0037353Y0165416D01*
X0036940Y0164418D02*
X0031100Y0164418D01*
X0031100Y0163419D02*
X0036600Y0163419D01*
X0036600Y0162421D02*
X0031100Y0162421D01*
X0031100Y0161422D02*
X0036611Y0161422D01*
X0037025Y0160424D02*
X0031100Y0160424D01*
X0031100Y0159425D02*
X0037461Y0159425D01*
X0038460Y0158427D02*
X0031100Y0158427D01*
X0031100Y0157428D02*
X0039730Y0157428D01*
X0038269Y0156430D02*
X0031100Y0156430D01*
X0031100Y0155431D02*
X0037359Y0155431D01*
X0036946Y0154433D02*
X0031100Y0154433D01*
X0031100Y0153434D02*
X0036600Y0153434D01*
X0036600Y0152436D02*
X0031100Y0152436D01*
X0031100Y0151437D02*
X0036605Y0151437D01*
X0037019Y0150439D02*
X0031100Y0150439D01*
X0031100Y0149440D02*
X0037447Y0149440D01*
X0038445Y0148442D02*
X0031100Y0148442D01*
X0031100Y0147443D02*
X0039766Y0147443D01*
X0038284Y0146445D02*
X0031100Y0146445D01*
X0031100Y0145446D02*
X0037366Y0145446D01*
X0036952Y0144448D02*
X0031100Y0144448D01*
X0031100Y0143449D02*
X0036600Y0143449D01*
X0036600Y0142451D02*
X0031100Y0142451D01*
X0031100Y0141452D02*
X0036600Y0141452D01*
X0037012Y0140454D02*
X0031100Y0140454D01*
X0031100Y0139455D02*
X0037432Y0139455D01*
X0038430Y0138457D02*
X0031100Y0138457D01*
X0031100Y0137458D02*
X0040118Y0137458D01*
X0038582Y0136460D02*
X0031100Y0136460D01*
X0031100Y0135461D02*
X0037707Y0135461D01*
X0037162Y0134463D02*
X0031100Y0134463D01*
X0031100Y0133464D02*
X0036884Y0133464D01*
X0036903Y0131467D02*
X0031100Y0131467D01*
X0031100Y0130469D02*
X0037211Y0130469D01*
X0037791Y0129470D02*
X0031100Y0129470D01*
X0031100Y0128472D02*
X0038730Y0128472D01*
X0039838Y0127473D02*
X0031100Y0127473D01*
X0031100Y0126474D02*
X0038314Y0126474D01*
X0037378Y0125476D02*
X0031100Y0125476D01*
X0031100Y0124477D02*
X0036964Y0124477D01*
X0036600Y0123479D02*
X0031100Y0123479D01*
X0031100Y0122480D02*
X0036600Y0122480D01*
X0036600Y0121482D02*
X0031100Y0121482D01*
X0031100Y0120483D02*
X0037000Y0120483D01*
X0037414Y0119485D02*
X0031100Y0119485D01*
X0031100Y0118486D02*
X0038400Y0118486D01*
X0039874Y0117488D02*
X0031100Y0117488D01*
X0031100Y0116489D02*
X0038329Y0116489D01*
X0037384Y0115491D02*
X0031100Y0115491D01*
X0031100Y0114492D02*
X0036971Y0114492D01*
X0036600Y0113494D02*
X0031100Y0113494D01*
X0031100Y0112495D02*
X0036600Y0112495D01*
X0036600Y0111497D02*
X0031100Y0111497D01*
X0031100Y0110498D02*
X0036994Y0110498D01*
X0037408Y0109500D02*
X0031100Y0109500D01*
X0031100Y0108501D02*
X0038386Y0108501D01*
X0039910Y0107503D02*
X0031100Y0107503D01*
X0031100Y0106504D02*
X0038344Y0106504D01*
X0037390Y0105506D02*
X0031100Y0105506D01*
X0031100Y0104507D02*
X0036977Y0104507D01*
X0036600Y0103509D02*
X0031100Y0103509D01*
X0031100Y0102510D02*
X0036600Y0102510D01*
X0036600Y0101512D02*
X0031100Y0101512D01*
X0031100Y0100513D02*
X0036988Y0100513D01*
X0037401Y0099515D02*
X0031100Y0099515D01*
X0031100Y0098516D02*
X0038371Y0098516D01*
X0039975Y0097518D02*
X0031100Y0097518D01*
X0031100Y0096519D02*
X0070868Y0096519D01*
X0070941Y0096446D02*
X0072926Y0095624D01*
X0075074Y0095624D01*
X0077059Y0096446D01*
X0078578Y0097965D01*
X0079109Y0099248D01*
X0079181Y0099028D01*
X0079553Y0098298D01*
X0080034Y0097636D01*
X0080612Y0097057D01*
X0081275Y0096576D01*
X0082004Y0096205D01*
X0082782Y0095952D01*
X0083500Y0095838D01*
X0083500Y0100524D01*
X0084500Y0100524D01*
X0084500Y0101524D01*
X0083500Y0101524D01*
X0083500Y0106209D01*
X0082782Y0106096D01*
X0082004Y0105843D01*
X0081275Y0105471D01*
X0080612Y0104990D01*
X0080034Y0104411D01*
X0079553Y0103749D01*
X0079181Y0103020D01*
X0079109Y0102799D01*
X0078578Y0104082D01*
X0077059Y0105602D01*
X0075074Y0106424D01*
X0072926Y0106424D01*
X0070941Y0105602D01*
X0069422Y0104082D01*
X0068600Y0102098D01*
X0068600Y0099949D01*
X0069422Y0097965D01*
X0070941Y0096446D01*
X0069869Y0097518D02*
X0044025Y0097518D01*
X0045629Y0098516D02*
X0069194Y0098516D01*
X0068780Y0099515D02*
X0046599Y0099515D01*
X0047012Y0100513D02*
X0068600Y0100513D01*
X0068600Y0101512D02*
X0047400Y0101512D01*
X0047400Y0102510D02*
X0068771Y0102510D01*
X0069184Y0103509D02*
X0047400Y0103509D01*
X0047023Y0104507D02*
X0069847Y0104507D01*
X0070845Y0105506D02*
X0046610Y0105506D01*
X0045656Y0106504D02*
X0118600Y0106504D01*
X0118600Y0107503D02*
X0044090Y0107503D01*
X0045614Y0108501D02*
X0118600Y0108501D01*
X0118600Y0109500D02*
X0046592Y0109500D01*
X0047006Y0110498D02*
X0118600Y0110498D01*
X0118600Y0111497D02*
X0047400Y0111497D01*
X0047400Y0112495D02*
X0118600Y0112495D01*
X0118600Y0113494D02*
X0047400Y0113494D01*
X0047029Y0114492D02*
X0118600Y0114492D01*
X0118600Y0115491D02*
X0046616Y0115491D01*
X0045671Y0116489D02*
X0118600Y0116489D01*
X0118600Y0117488D02*
X0044126Y0117488D01*
X0045600Y0118486D02*
X0118600Y0118486D01*
X0118600Y0119485D02*
X0046586Y0119485D01*
X0047000Y0120483D02*
X0118600Y0120483D01*
X0118600Y0121482D02*
X0047400Y0121482D01*
X0047400Y0122480D02*
X0118600Y0122480D01*
X0118600Y0123479D02*
X0047400Y0123479D01*
X0047036Y0124477D02*
X0118600Y0124477D01*
X0118600Y0125476D02*
X0046622Y0125476D01*
X0045686Y0126474D02*
X0118600Y0126474D01*
X0118600Y0127473D02*
X0044162Y0127473D01*
X0045270Y0128472D02*
X0118600Y0128472D01*
X0118600Y0129470D02*
X0046209Y0129470D01*
X0046789Y0130469D02*
X0118600Y0130469D01*
X0118600Y0131467D02*
X0047097Y0131467D01*
X0047116Y0133464D02*
X0118600Y0133464D01*
X0118600Y0132466D02*
X0042500Y0132466D01*
X0041500Y0132466D02*
X0031100Y0132466D01*
X0043882Y0137458D02*
X0118600Y0137458D01*
X0118600Y0136460D02*
X0045418Y0136460D01*
X0046293Y0135461D02*
X0118600Y0135461D01*
X0118600Y0134463D02*
X0046838Y0134463D01*
X0045570Y0138457D02*
X0118600Y0138457D01*
X0118600Y0139455D02*
X0046568Y0139455D01*
X0045760Y0176400D02*
X0208600Y0176400D01*
X0208600Y0175402D02*
X0152130Y0175402D01*
X0153722Y0174403D02*
X0208600Y0174403D01*
X0208600Y0173405D02*
X0154274Y0173405D01*
X0154400Y0172406D02*
X0208600Y0172406D01*
X0208600Y0171408D02*
X0154400Y0171408D01*
X0154400Y0170409D02*
X0208600Y0170409D01*
X0208600Y0169410D02*
X0154400Y0169410D01*
X0154400Y0168412D02*
X0208600Y0168412D01*
X0208600Y0167413D02*
X0154400Y0167413D01*
X0154400Y0166415D02*
X0208600Y0166415D01*
X0208600Y0165416D02*
X0154400Y0165416D01*
X0154400Y0164418D02*
X0208600Y0164418D01*
X0208600Y0163419D02*
X0154400Y0163419D01*
X0154400Y0162421D02*
X0208600Y0162421D01*
X0208600Y0161422D02*
X0154400Y0161422D01*
X0154400Y0160424D02*
X0208600Y0160424D01*
X0208600Y0159425D02*
X0154400Y0159425D01*
X0154400Y0158427D02*
X0208600Y0158427D01*
X0208600Y0157428D02*
X0154400Y0157428D01*
X0154400Y0156430D02*
X0208600Y0156430D01*
X0208600Y0155431D02*
X0154400Y0155431D01*
X0154400Y0154433D02*
X0208600Y0154433D01*
X0208600Y0153434D02*
X0154400Y0153434D01*
X0154400Y0152436D02*
X0208600Y0152436D01*
X0208600Y0151437D02*
X0154400Y0151437D01*
X0154400Y0150439D02*
X0208600Y0150439D01*
X0208600Y0149440D02*
X0154400Y0149440D01*
X0154400Y0148442D02*
X0208600Y0148442D01*
X0208600Y0147443D02*
X0154400Y0147443D01*
X0154400Y0146445D02*
X0208600Y0146445D01*
X0208600Y0145446D02*
X0154400Y0145446D01*
X0154400Y0144448D02*
X0208600Y0144448D01*
X0208600Y0143449D02*
X0154400Y0143449D01*
X0154400Y0142451D02*
X0208600Y0142451D01*
X0208600Y0141452D02*
X0154400Y0141452D01*
X0154400Y0140454D02*
X0208600Y0140454D01*
X0208600Y0139455D02*
X0154400Y0139455D01*
X0154400Y0138457D02*
X0208600Y0138457D01*
X0208600Y0137458D02*
X0154400Y0137458D01*
X0154400Y0136460D02*
X0208600Y0136460D01*
X0208600Y0135461D02*
X0154400Y0135461D01*
X0154400Y0134463D02*
X0208600Y0134463D01*
X0208600Y0133464D02*
X0154400Y0133464D01*
X0154400Y0132466D02*
X0208600Y0132466D01*
X0208600Y0131467D02*
X0154400Y0131467D01*
X0154400Y0130469D02*
X0208600Y0130469D01*
X0208600Y0129470D02*
X0154400Y0129470D01*
X0154400Y0128472D02*
X0208600Y0128472D01*
X0208600Y0127473D02*
X0154400Y0127473D01*
X0154400Y0126474D02*
X0208600Y0126474D01*
X0208600Y0125476D02*
X0154400Y0125476D01*
X0154400Y0124477D02*
X0208600Y0124477D01*
X0208600Y0123479D02*
X0154400Y0123479D01*
X0154400Y0122480D02*
X0208600Y0122480D01*
X0208600Y0121482D02*
X0154400Y0121482D01*
X0154400Y0120483D02*
X0184074Y0120483D01*
X0184110Y0120498D02*
X0182465Y0119817D01*
X0181206Y0118558D01*
X0180525Y0116914D01*
X0180525Y0115134D01*
X0181206Y0113489D01*
X0182465Y0112230D01*
X0184110Y0111549D01*
X0185890Y0111549D01*
X0187535Y0112230D01*
X0188794Y0113489D01*
X0189475Y0115134D01*
X0189475Y0116914D01*
X0188794Y0118558D01*
X0187535Y0119817D01*
X0185890Y0120498D01*
X0184110Y0120498D01*
X0185926Y0120483D02*
X0198074Y0120483D01*
X0198110Y0120498D02*
X0196465Y0119817D01*
X0195206Y0118558D01*
X0194525Y0116914D01*
X0194525Y0115134D01*
X0195206Y0113489D01*
X0196465Y0112230D01*
X0198110Y0111549D01*
X0199890Y0111549D01*
X0201535Y0112230D01*
X0202428Y0113124D01*
X0212077Y0113124D01*
X0213143Y0113565D01*
X0213958Y0114381D01*
X0214400Y0115447D01*
X0214400Y0224624D01*
X0227356Y0224624D01*
X0227422Y0224465D01*
X0228941Y0222946D01*
X0230926Y0222124D01*
X0233074Y0222124D01*
X0235059Y0222946D01*
X0236578Y0224465D01*
X0237400Y0226449D01*
X0237400Y0228598D01*
X0236578Y0230582D01*
X0235059Y0232102D01*
X0234040Y0232524D01*
X0235059Y0232946D01*
X0236578Y0234465D01*
X0237400Y0236449D01*
X0237400Y0238598D01*
X0236578Y0240582D01*
X0235059Y0242102D01*
X0234040Y0242524D01*
X0235059Y0242946D01*
X0236578Y0244465D01*
X0237400Y0246449D01*
X0237400Y0248598D01*
X0236578Y0250582D01*
X0235059Y0252102D01*
X0234040Y0252524D01*
X0235059Y0252946D01*
X0236578Y0254465D01*
X0237400Y0256449D01*
X0237400Y0258598D01*
X0236578Y0260582D01*
X0235059Y0262102D01*
X0234040Y0262524D01*
X0235059Y0262946D01*
X0236578Y0264465D01*
X0237400Y0266449D01*
X0237400Y0268598D01*
X0236578Y0270582D01*
X0235059Y0272102D01*
X0234040Y0272524D01*
X0235059Y0272946D01*
X0236578Y0274465D01*
X0237400Y0276449D01*
X0237400Y0278598D01*
X0236578Y0280582D01*
X0235059Y0282102D01*
X0233074Y0282924D01*
X0230926Y0282924D01*
X0228941Y0282102D01*
X0227422Y0280582D01*
X0226600Y0278598D01*
X0226600Y0276449D01*
X0227422Y0274465D01*
X0228941Y0272946D01*
X0229960Y0272524D01*
X0228941Y0272102D01*
X0227422Y0270582D01*
X0226600Y0268598D01*
X0226600Y0266449D01*
X0227422Y0264465D01*
X0228941Y0262946D01*
X0229960Y0262524D01*
X0228941Y0262102D01*
X0227422Y0260582D01*
X0226600Y0258598D01*
X0226600Y0256449D01*
X0227422Y0254465D01*
X0228941Y0252946D01*
X0229960Y0252524D01*
X0228941Y0252102D01*
X0227422Y0250582D01*
X0226600Y0248598D01*
X0226600Y0246449D01*
X0227422Y0244465D01*
X0228941Y0242946D01*
X0229960Y0242524D01*
X0228941Y0242102D01*
X0227422Y0240582D01*
X0226600Y0238598D01*
X0226600Y0236449D01*
X0227422Y0234465D01*
X0228941Y0232946D01*
X0229960Y0232524D01*
X0228941Y0232102D01*
X0227422Y0230582D01*
X0227356Y0230424D01*
X0210923Y0230424D01*
X0209857Y0229982D01*
X0209041Y0229166D01*
X0208600Y0228100D01*
X0208600Y0118924D01*
X0202428Y0118924D01*
X0201535Y0119817D01*
X0199890Y0120498D01*
X0198110Y0120498D01*
X0199926Y0120483D02*
X0208600Y0120483D01*
X0208600Y0119485D02*
X0201867Y0119485D01*
X0201800Y0112495D02*
X0241900Y0112495D01*
X0241900Y0111497D02*
X0154400Y0111497D01*
X0154400Y0112495D02*
X0182200Y0112495D01*
X0181204Y0113494D02*
X0154400Y0113494D01*
X0154400Y0114492D02*
X0180791Y0114492D01*
X0180525Y0115491D02*
X0154400Y0115491D01*
X0154400Y0116489D02*
X0180525Y0116489D01*
X0180763Y0117488D02*
X0154400Y0117488D01*
X0154400Y0118486D02*
X0181177Y0118486D01*
X0182133Y0119485D02*
X0154400Y0119485D01*
X0154400Y0110498D02*
X0241900Y0110498D01*
X0241900Y0109500D02*
X0154400Y0109500D01*
X0154400Y0108501D02*
X0241900Y0108501D01*
X0241900Y0107503D02*
X0154400Y0107503D01*
X0154400Y0106504D02*
X0241900Y0106504D01*
X0241900Y0105506D02*
X0154655Y0105506D01*
X0155653Y0104507D02*
X0241900Y0104507D01*
X0241900Y0103509D02*
X0156316Y0103509D01*
X0156729Y0102510D02*
X0241900Y0102510D01*
X0241900Y0101512D02*
X0156900Y0101512D01*
X0156900Y0100513D02*
X0241900Y0100513D01*
X0241900Y0099515D02*
X0156720Y0099515D01*
X0156306Y0098516D02*
X0241900Y0098516D01*
X0241900Y0097518D02*
X0155631Y0097518D01*
X0154632Y0096519D02*
X0241900Y0096519D01*
X0241900Y0113494D02*
X0212971Y0113494D01*
X0214005Y0114492D02*
X0241900Y0114492D01*
X0241900Y0115491D02*
X0214400Y0115491D01*
X0214400Y0116489D02*
X0241900Y0116489D01*
X0241900Y0117488D02*
X0214400Y0117488D01*
X0214400Y0118486D02*
X0241900Y0118486D01*
X0241900Y0119485D02*
X0214400Y0119485D01*
X0214400Y0120483D02*
X0241900Y0120483D01*
X0241900Y0121482D02*
X0214400Y0121482D01*
X0214400Y0122480D02*
X0241900Y0122480D01*
X0241900Y0123479D02*
X0214400Y0123479D01*
X0214400Y0124477D02*
X0241900Y0124477D01*
X0241900Y0125476D02*
X0214400Y0125476D01*
X0214400Y0126474D02*
X0241900Y0126474D01*
X0241900Y0127473D02*
X0214400Y0127473D01*
X0214400Y0128472D02*
X0241900Y0128472D01*
X0241900Y0129470D02*
X0214400Y0129470D01*
X0214400Y0130469D02*
X0241900Y0130469D01*
X0241900Y0131467D02*
X0214400Y0131467D01*
X0214400Y0132466D02*
X0230100Y0132466D01*
X0230926Y0132124D02*
X0233074Y0132124D01*
X0235059Y0132946D01*
X0236578Y0134465D01*
X0237400Y0136449D01*
X0237400Y0138598D01*
X0236578Y0140582D01*
X0235059Y0142102D01*
X0234040Y0142524D01*
X0235059Y0142946D01*
X0236578Y0144465D01*
X0237400Y0146449D01*
X0237400Y0148598D01*
X0236578Y0150582D01*
X0235059Y0152102D01*
X0234040Y0152524D01*
X0235059Y0152946D01*
X0236578Y0154465D01*
X0237400Y0156449D01*
X0237400Y0158598D01*
X0236578Y0160582D01*
X0235059Y0162102D01*
X0234040Y0162524D01*
X0235059Y0162946D01*
X0236578Y0164465D01*
X0237400Y0166449D01*
X0237400Y0168598D01*
X0236578Y0170582D01*
X0235059Y0172102D01*
X0234040Y0172524D01*
X0235059Y0172946D01*
X0236578Y0174465D01*
X0237400Y0176449D01*
X0237400Y0178598D01*
X0236578Y0180582D01*
X0235059Y0182102D01*
X0233776Y0182633D01*
X0233996Y0182705D01*
X0234725Y0183076D01*
X0235388Y0183557D01*
X0235966Y0184136D01*
X0236447Y0184798D01*
X0236819Y0185528D01*
X0237072Y0186306D01*
X0237186Y0187024D01*
X0232500Y0187024D01*
X0232500Y0188024D01*
X0231500Y0188024D01*
X0231500Y0197024D01*
X0226814Y0197024D01*
X0226928Y0196306D01*
X0227181Y0195528D01*
X0227553Y0194798D01*
X0228034Y0194136D01*
X0228612Y0193557D01*
X0229275Y0193076D01*
X0230004Y0192705D01*
X0230561Y0192524D01*
X0230004Y0192343D01*
X0229275Y0191971D01*
X0228612Y0191490D01*
X0228034Y0190911D01*
X0227553Y0190249D01*
X0227181Y0189520D01*
X0226928Y0188741D01*
X0226814Y0188024D01*
X0231500Y0188024D01*
X0231500Y0187024D01*
X0226814Y0187024D01*
X0226928Y0186306D01*
X0227181Y0185528D01*
X0227553Y0184798D01*
X0228034Y0184136D01*
X0228612Y0183557D01*
X0229275Y0183076D01*
X0230004Y0182705D01*
X0230224Y0182633D01*
X0228941Y0182102D01*
X0227422Y0180582D01*
X0226600Y0178598D01*
X0226600Y0176449D01*
X0227422Y0174465D01*
X0228941Y0172946D01*
X0229960Y0172524D01*
X0228941Y0172102D01*
X0227422Y0170582D01*
X0226600Y0168598D01*
X0226600Y0166449D01*
X0227422Y0164465D01*
X0228941Y0162946D01*
X0229960Y0162524D01*
X0228941Y0162102D01*
X0227422Y0160582D01*
X0226600Y0158598D01*
X0226600Y0156449D01*
X0227422Y0154465D01*
X0228941Y0152946D01*
X0229960Y0152524D01*
X0228941Y0152102D01*
X0227422Y0150582D01*
X0226600Y0148598D01*
X0226600Y0146449D01*
X0227422Y0144465D01*
X0228941Y0142946D01*
X0229960Y0142524D01*
X0228941Y0142102D01*
X0227422Y0140582D01*
X0226600Y0138598D01*
X0226600Y0136449D01*
X0227422Y0134465D01*
X0228941Y0132946D01*
X0230926Y0132124D01*
X0228423Y0133464D02*
X0214400Y0133464D01*
X0214400Y0134463D02*
X0227424Y0134463D01*
X0227009Y0135461D02*
X0214400Y0135461D01*
X0214400Y0136460D02*
X0226600Y0136460D01*
X0226600Y0137458D02*
X0214400Y0137458D01*
X0214400Y0138457D02*
X0226600Y0138457D01*
X0226955Y0139455D02*
X0214400Y0139455D01*
X0214400Y0140454D02*
X0227369Y0140454D01*
X0228292Y0141452D02*
X0214400Y0141452D01*
X0214400Y0142451D02*
X0229784Y0142451D01*
X0228438Y0143449D02*
X0214400Y0143449D01*
X0214400Y0144448D02*
X0227439Y0144448D01*
X0227016Y0145446D02*
X0214400Y0145446D01*
X0214400Y0146445D02*
X0226602Y0146445D01*
X0226600Y0147443D02*
X0214400Y0147443D01*
X0214400Y0148442D02*
X0226600Y0148442D01*
X0226949Y0149440D02*
X0214400Y0149440D01*
X0214400Y0150439D02*
X0227363Y0150439D01*
X0228277Y0151437D02*
X0214400Y0151437D01*
X0214400Y0152436D02*
X0229748Y0152436D01*
X0228453Y0153434D02*
X0214400Y0153434D01*
X0214400Y0154433D02*
X0227454Y0154433D01*
X0227022Y0155431D02*
X0214400Y0155431D01*
X0214400Y0156430D02*
X0226608Y0156430D01*
X0226600Y0157428D02*
X0214400Y0157428D01*
X0214400Y0158427D02*
X0226600Y0158427D01*
X0226943Y0159425D02*
X0214400Y0159425D01*
X0214400Y0160424D02*
X0227356Y0160424D01*
X0228262Y0161422D02*
X0214400Y0161422D01*
X0214400Y0162421D02*
X0229712Y0162421D01*
X0228467Y0163419D02*
X0214400Y0163419D01*
X0214400Y0164418D02*
X0227469Y0164418D01*
X0227028Y0165416D02*
X0214400Y0165416D01*
X0214400Y0166415D02*
X0226614Y0166415D01*
X0226600Y0167413D02*
X0214400Y0167413D01*
X0214400Y0168412D02*
X0226600Y0168412D01*
X0226937Y0169410D02*
X0214400Y0169410D01*
X0214400Y0170409D02*
X0227350Y0170409D01*
X0228247Y0171408D02*
X0214400Y0171408D01*
X0214400Y0172406D02*
X0229676Y0172406D01*
X0228482Y0173405D02*
X0214400Y0173405D01*
X0214400Y0174403D02*
X0227484Y0174403D01*
X0227034Y0175402D02*
X0214400Y0175402D01*
X0214400Y0176400D02*
X0226620Y0176400D01*
X0226600Y0177399D02*
X0214400Y0177399D01*
X0214400Y0178397D02*
X0226600Y0178397D01*
X0226930Y0179396D02*
X0214400Y0179396D01*
X0214400Y0180394D02*
X0227344Y0180394D01*
X0228232Y0181393D02*
X0214400Y0181393D01*
X0214400Y0182391D02*
X0229640Y0182391D01*
X0228843Y0183390D02*
X0214400Y0183390D01*
X0214400Y0184388D02*
X0227850Y0184388D01*
X0227253Y0185387D02*
X0214400Y0185387D01*
X0214400Y0186385D02*
X0226915Y0186385D01*
X0226871Y0188382D02*
X0214400Y0188382D01*
X0214400Y0187384D02*
X0231500Y0187384D01*
X0231500Y0188382D02*
X0232500Y0188382D01*
X0232500Y0188024D02*
X0232500Y0192338D01*
X0232500Y0197024D01*
X0232500Y0198024D01*
X0237186Y0198024D01*
X0237072Y0198741D01*
X0236819Y0199520D01*
X0236447Y0200249D01*
X0235966Y0200911D01*
X0235388Y0201490D01*
X0234725Y0201971D01*
X0233996Y0202343D01*
X0233776Y0202414D01*
X0235059Y0202946D01*
X0236578Y0204465D01*
X0237400Y0206449D01*
X0237400Y0208598D01*
X0236578Y0210582D01*
X0235059Y0212102D01*
X0233074Y0212924D01*
X0230926Y0212924D01*
X0228941Y0212102D01*
X0227422Y0210582D01*
X0226600Y0208598D01*
X0226600Y0206449D01*
X0227422Y0204465D01*
X0228941Y0202946D01*
X0230224Y0202414D01*
X0230004Y0202343D01*
X0229275Y0201971D01*
X0228612Y0201490D01*
X0228034Y0200911D01*
X0227553Y0200249D01*
X0227181Y0199520D01*
X0226928Y0198741D01*
X0226814Y0198024D01*
X0231500Y0198024D01*
X0231500Y0197024D01*
X0232500Y0197024D01*
X0237186Y0197024D01*
X0237072Y0196306D01*
X0236819Y0195528D01*
X0236447Y0194798D01*
X0235966Y0194136D01*
X0235388Y0193557D01*
X0234725Y0193076D01*
X0233996Y0192705D01*
X0233439Y0192524D01*
X0233996Y0192343D01*
X0234725Y0191971D01*
X0235388Y0191490D01*
X0235966Y0190911D01*
X0236447Y0190249D01*
X0236819Y0189520D01*
X0237072Y0188741D01*
X0237186Y0188024D01*
X0232500Y0188024D01*
X0232500Y0187384D02*
X0241900Y0187384D01*
X0241900Y0188382D02*
X0237129Y0188382D01*
X0236864Y0189381D02*
X0241900Y0189381D01*
X0241900Y0190379D02*
X0236353Y0190379D01*
X0235500Y0191378D02*
X0241900Y0191378D01*
X0241900Y0192376D02*
X0233893Y0192376D01*
X0232500Y0192376D02*
X0231500Y0192376D01*
X0231500Y0191378D02*
X0232500Y0191378D01*
X0232500Y0190379D02*
X0231500Y0190379D01*
X0231500Y0189381D02*
X0232500Y0189381D01*
X0230107Y0192376D02*
X0214400Y0192376D01*
X0214400Y0191378D02*
X0228500Y0191378D01*
X0227647Y0190379D02*
X0214400Y0190379D01*
X0214400Y0189381D02*
X0227136Y0189381D01*
X0228864Y0193375D02*
X0214400Y0193375D01*
X0214400Y0194373D02*
X0227861Y0194373D01*
X0227260Y0195372D02*
X0214400Y0195372D01*
X0214400Y0196370D02*
X0226918Y0196370D01*
X0226869Y0198367D02*
X0214400Y0198367D01*
X0214400Y0197369D02*
X0231500Y0197369D01*
X0231500Y0196370D02*
X0232500Y0196370D01*
X0232500Y0195372D02*
X0231500Y0195372D01*
X0231500Y0194373D02*
X0232500Y0194373D01*
X0232500Y0193375D02*
X0231500Y0193375D01*
X0235136Y0193375D02*
X0241900Y0193375D01*
X0241900Y0194373D02*
X0236139Y0194373D01*
X0236740Y0195372D02*
X0241900Y0195372D01*
X0241900Y0196370D02*
X0237082Y0196370D01*
X0237131Y0198367D02*
X0241900Y0198367D01*
X0241900Y0197369D02*
X0232500Y0197369D01*
X0235515Y0201363D02*
X0241900Y0201363D01*
X0241900Y0202361D02*
X0233939Y0202361D01*
X0235473Y0203360D02*
X0241900Y0203360D01*
X0241900Y0204358D02*
X0236472Y0204358D01*
X0236947Y0205357D02*
X0241900Y0205357D01*
X0241900Y0206355D02*
X0237361Y0206355D01*
X0237400Y0207354D02*
X0241900Y0207354D01*
X0241900Y0208352D02*
X0237400Y0208352D01*
X0237088Y0209351D02*
X0241900Y0209351D01*
X0241900Y0210349D02*
X0236674Y0210349D01*
X0235812Y0211348D02*
X0241900Y0211348D01*
X0241900Y0212346D02*
X0234467Y0212346D01*
X0229533Y0212346D02*
X0214400Y0212346D01*
X0214400Y0211348D02*
X0228188Y0211348D01*
X0227326Y0210349D02*
X0214400Y0210349D01*
X0214400Y0209351D02*
X0226912Y0209351D01*
X0226600Y0208352D02*
X0214400Y0208352D01*
X0214400Y0207354D02*
X0226600Y0207354D01*
X0226639Y0206355D02*
X0214400Y0206355D01*
X0214400Y0205357D02*
X0227053Y0205357D01*
X0227528Y0204358D02*
X0214400Y0204358D01*
X0214400Y0203360D02*
X0228527Y0203360D01*
X0230061Y0202361D02*
X0214400Y0202361D01*
X0214400Y0201363D02*
X0228485Y0201363D01*
X0227636Y0200364D02*
X0214400Y0200364D01*
X0214400Y0199366D02*
X0227131Y0199366D01*
X0236364Y0200364D02*
X0241900Y0200364D01*
X0241900Y0199366D02*
X0236869Y0199366D01*
X0237084Y0186385D02*
X0241900Y0186385D01*
X0241900Y0185387D02*
X0236747Y0185387D01*
X0236149Y0184388D02*
X0241900Y0184388D01*
X0241900Y0183390D02*
X0235157Y0183390D01*
X0234360Y0182391D02*
X0241900Y0182391D01*
X0241900Y0181393D02*
X0235768Y0181393D01*
X0236656Y0180394D02*
X0241900Y0180394D01*
X0241900Y0179396D02*
X0237070Y0179396D01*
X0237400Y0178397D02*
X0241900Y0178397D01*
X0241900Y0177399D02*
X0237400Y0177399D01*
X0237380Y0176400D02*
X0241900Y0176400D01*
X0241900Y0175402D02*
X0236966Y0175402D01*
X0236516Y0174403D02*
X0241900Y0174403D01*
X0241900Y0173405D02*
X0235518Y0173405D01*
X0234324Y0172406D02*
X0241900Y0172406D01*
X0241900Y0171408D02*
X0235753Y0171408D01*
X0236650Y0170409D02*
X0241900Y0170409D01*
X0241900Y0169410D02*
X0237063Y0169410D01*
X0237400Y0168412D02*
X0241900Y0168412D01*
X0241900Y0167413D02*
X0237400Y0167413D01*
X0237386Y0166415D02*
X0241900Y0166415D01*
X0241900Y0165416D02*
X0236972Y0165416D01*
X0236531Y0164418D02*
X0241900Y0164418D01*
X0241900Y0163419D02*
X0235533Y0163419D01*
X0234288Y0162421D02*
X0241900Y0162421D01*
X0241900Y0161422D02*
X0235738Y0161422D01*
X0236644Y0160424D02*
X0241900Y0160424D01*
X0241900Y0159425D02*
X0237057Y0159425D01*
X0237400Y0158427D02*
X0241900Y0158427D01*
X0241900Y0157428D02*
X0237400Y0157428D01*
X0237392Y0156430D02*
X0241900Y0156430D01*
X0241900Y0155431D02*
X0236978Y0155431D01*
X0236546Y0154433D02*
X0241900Y0154433D01*
X0241900Y0153434D02*
X0235547Y0153434D01*
X0234252Y0152436D02*
X0241900Y0152436D01*
X0241900Y0151437D02*
X0235723Y0151437D01*
X0236637Y0150439D02*
X0241900Y0150439D01*
X0241900Y0149440D02*
X0237051Y0149440D01*
X0237400Y0148442D02*
X0241900Y0148442D01*
X0241900Y0147443D02*
X0237400Y0147443D01*
X0237398Y0146445D02*
X0241900Y0146445D01*
X0241900Y0145446D02*
X0236984Y0145446D01*
X0236561Y0144448D02*
X0241900Y0144448D01*
X0241900Y0143449D02*
X0235562Y0143449D01*
X0234216Y0142451D02*
X0241900Y0142451D01*
X0241900Y0141452D02*
X0235708Y0141452D01*
X0236631Y0140454D02*
X0241900Y0140454D01*
X0241900Y0139455D02*
X0237045Y0139455D01*
X0237400Y0138457D02*
X0241900Y0138457D01*
X0241900Y0137458D02*
X0237400Y0137458D01*
X0237400Y0136460D02*
X0241900Y0136460D01*
X0241900Y0135461D02*
X0236991Y0135461D01*
X0236576Y0134463D02*
X0241900Y0134463D01*
X0241900Y0133464D02*
X0235577Y0133464D01*
X0233900Y0132466D02*
X0241900Y0132466D01*
X0208600Y0177399D02*
X0044342Y0177399D01*
X0045510Y0178397D02*
X0208600Y0178397D01*
X0208600Y0179396D02*
X0046509Y0179396D01*
X0046963Y0180394D02*
X0208600Y0180394D01*
X0208600Y0181393D02*
X0158720Y0181393D01*
X0159535Y0181730D02*
X0160794Y0182989D01*
X0161475Y0184634D01*
X0161475Y0186414D01*
X0160794Y0188058D01*
X0159535Y0189317D01*
X0157890Y0189998D01*
X0156110Y0189998D01*
X0154465Y0189317D01*
X0153206Y0188058D01*
X0152525Y0186414D01*
X0152525Y0184634D01*
X0153206Y0182989D01*
X0154465Y0181730D01*
X0156110Y0181049D01*
X0157890Y0181049D01*
X0159535Y0181730D01*
X0160196Y0182391D02*
X0208600Y0182391D01*
X0208600Y0183390D02*
X0160960Y0183390D01*
X0161373Y0184388D02*
X0208600Y0184388D01*
X0208600Y0185387D02*
X0161475Y0185387D01*
X0161475Y0186385D02*
X0208600Y0186385D01*
X0208600Y0187384D02*
X0161073Y0187384D01*
X0160470Y0188382D02*
X0208600Y0188382D01*
X0208600Y0189381D02*
X0159381Y0189381D01*
X0154619Y0189381D02*
X0046494Y0189381D01*
X0046957Y0190379D02*
X0208600Y0190379D01*
X0208600Y0191378D02*
X0047370Y0191378D01*
X0047400Y0192376D02*
X0208600Y0192376D01*
X0208600Y0193375D02*
X0047400Y0193375D01*
X0047079Y0194373D02*
X0208600Y0194373D01*
X0208600Y0195372D02*
X0158670Y0195372D01*
X0157890Y0195049D02*
X0159535Y0195730D01*
X0160794Y0196989D01*
X0161475Y0198634D01*
X0161475Y0200414D01*
X0160794Y0202058D01*
X0159535Y0203317D01*
X0157890Y0203998D01*
X0156110Y0203998D01*
X0154465Y0203317D01*
X0153206Y0202058D01*
X0152525Y0200414D01*
X0152525Y0198634D01*
X0153206Y0196989D01*
X0154465Y0195730D01*
X0156110Y0195049D01*
X0157890Y0195049D01*
X0155330Y0195372D02*
X0046665Y0195372D01*
X0045790Y0196370D02*
X0153825Y0196370D01*
X0153049Y0197369D02*
X0044414Y0197369D01*
X0039586Y0197369D02*
X0036500Y0197369D01*
X0036500Y0198367D02*
X0152635Y0198367D01*
X0152525Y0199366D02*
X0036500Y0199366D01*
X0036500Y0200364D02*
X0152525Y0200364D01*
X0152918Y0201363D02*
X0036500Y0201363D01*
X0036500Y0202361D02*
X0040352Y0202361D01*
X0040926Y0202124D02*
X0043074Y0202124D01*
X0045059Y0202946D01*
X0046578Y0204465D01*
X0047400Y0206449D01*
X0047400Y0208598D01*
X0046578Y0210582D01*
X0045059Y0212102D01*
X0044040Y0212524D01*
X0045059Y0212946D01*
X0046578Y0214465D01*
X0047400Y0216449D01*
X0047400Y0218598D01*
X0046578Y0220582D01*
X0045059Y0222102D01*
X0044040Y0222524D01*
X0045059Y0222946D01*
X0046578Y0224465D01*
X0047400Y0226449D01*
X0047400Y0228598D01*
X0046578Y0230582D01*
X0045059Y0232102D01*
X0044040Y0232524D01*
X0045059Y0232946D01*
X0046578Y0234465D01*
X0047400Y0236449D01*
X0047400Y0238598D01*
X0046578Y0240582D01*
X0045059Y0242102D01*
X0044040Y0242524D01*
X0045059Y0242946D01*
X0046578Y0244465D01*
X0047400Y0246449D01*
X0047400Y0248598D01*
X0046578Y0250582D01*
X0045059Y0252102D01*
X0044040Y0252524D01*
X0045059Y0252946D01*
X0046578Y0254465D01*
X0047400Y0256449D01*
X0047400Y0258598D01*
X0046578Y0260582D01*
X0045059Y0262102D01*
X0044040Y0262524D01*
X0045059Y0262946D01*
X0046578Y0264465D01*
X0047400Y0266449D01*
X0047400Y0268598D01*
X0046578Y0270582D01*
X0045059Y0272102D01*
X0044040Y0272524D01*
X0045059Y0272946D01*
X0046578Y0274465D01*
X0047400Y0276449D01*
X0047400Y0278598D01*
X0046578Y0280582D01*
X0045059Y0282102D01*
X0043074Y0282924D01*
X0040926Y0282924D01*
X0038941Y0282102D01*
X0037422Y0280582D01*
X0036600Y0278598D01*
X0036600Y0276449D01*
X0037422Y0274465D01*
X0038941Y0272946D01*
X0039960Y0272524D01*
X0038941Y0272102D01*
X0037422Y0270582D01*
X0036600Y0268598D01*
X0036600Y0266449D01*
X0037422Y0264465D01*
X0038941Y0262946D01*
X0039960Y0262524D01*
X0038941Y0262102D01*
X0037422Y0260582D01*
X0036600Y0258598D01*
X0036600Y0256449D01*
X0037422Y0254465D01*
X0038941Y0252946D01*
X0039960Y0252524D01*
X0038941Y0252102D01*
X0037422Y0250582D01*
X0036600Y0248598D01*
X0036600Y0246449D01*
X0037422Y0244465D01*
X0038941Y0242946D01*
X0039960Y0242524D01*
X0038941Y0242102D01*
X0037422Y0240582D01*
X0036600Y0238598D01*
X0036600Y0236449D01*
X0037422Y0234465D01*
X0038941Y0232946D01*
X0039960Y0232524D01*
X0038941Y0232102D01*
X0037422Y0230582D01*
X0036600Y0228598D01*
X0036600Y0226449D01*
X0037422Y0224465D01*
X0038941Y0222946D01*
X0039960Y0222524D01*
X0038941Y0222102D01*
X0037422Y0220582D01*
X0036600Y0218598D01*
X0036600Y0216449D01*
X0037422Y0214465D01*
X0038941Y0212946D01*
X0039960Y0212524D01*
X0038941Y0212102D01*
X0037422Y0210582D01*
X0036600Y0208598D01*
X0036600Y0206449D01*
X0037422Y0204465D01*
X0038941Y0202946D01*
X0040926Y0202124D01*
X0038527Y0203360D02*
X0036500Y0203360D01*
X0036500Y0204358D02*
X0037528Y0204358D01*
X0037053Y0205357D02*
X0036500Y0205357D01*
X0036500Y0206355D02*
X0036639Y0206355D01*
X0036600Y0207354D02*
X0036500Y0207354D01*
X0036500Y0208352D02*
X0036600Y0208352D01*
X0036500Y0209351D02*
X0036912Y0209351D01*
X0036500Y0210349D02*
X0037326Y0210349D01*
X0036500Y0211348D02*
X0038188Y0211348D01*
X0039533Y0212346D02*
X0036500Y0212346D01*
X0036500Y0213345D02*
X0038542Y0213345D01*
X0037543Y0214343D02*
X0036500Y0214343D01*
X0036500Y0215342D02*
X0037059Y0215342D01*
X0036645Y0216341D02*
X0036500Y0216341D01*
X0036500Y0217339D02*
X0036600Y0217339D01*
X0036600Y0218338D02*
X0036500Y0218338D01*
X0036500Y0219336D02*
X0036906Y0219336D01*
X0036500Y0220335D02*
X0037319Y0220335D01*
X0036500Y0221333D02*
X0038173Y0221333D01*
X0039497Y0222332D02*
X0036500Y0222332D01*
X0036500Y0223330D02*
X0038557Y0223330D01*
X0037558Y0224329D02*
X0036500Y0224329D01*
X0036500Y0225327D02*
X0037065Y0225327D01*
X0036651Y0226326D02*
X0036500Y0226326D01*
X0036500Y0227324D02*
X0036600Y0227324D01*
X0036600Y0228323D02*
X0036500Y0228323D01*
X0036500Y0229321D02*
X0036900Y0229321D01*
X0036500Y0230320D02*
X0037313Y0230320D01*
X0036500Y0231318D02*
X0038158Y0231318D01*
X0039461Y0232317D02*
X0036500Y0232317D01*
X0036500Y0233315D02*
X0038572Y0233315D01*
X0037573Y0234314D02*
X0036500Y0234314D01*
X0036500Y0235312D02*
X0037071Y0235312D01*
X0036657Y0236311D02*
X0036500Y0236311D01*
X0036500Y0237309D02*
X0036600Y0237309D01*
X0036600Y0238308D02*
X0036500Y0238308D01*
X0036500Y0239306D02*
X0036893Y0239306D01*
X0036500Y0240305D02*
X0037307Y0240305D01*
X0036500Y0241303D02*
X0038143Y0241303D01*
X0039425Y0242302D02*
X0036500Y0242302D01*
X0036500Y0243300D02*
X0038587Y0243300D01*
X0037588Y0244299D02*
X0036500Y0244299D01*
X0036500Y0245297D02*
X0037077Y0245297D01*
X0036664Y0246296D02*
X0036500Y0246296D01*
X0036500Y0247294D02*
X0036600Y0247294D01*
X0036600Y0248293D02*
X0036500Y0248293D01*
X0036500Y0249291D02*
X0036887Y0249291D01*
X0036500Y0250290D02*
X0037301Y0250290D01*
X0036500Y0251288D02*
X0038128Y0251288D01*
X0039389Y0252287D02*
X0036500Y0252287D01*
X0036500Y0253285D02*
X0038601Y0253285D01*
X0037603Y0254284D02*
X0036500Y0254284D01*
X0036500Y0255282D02*
X0037083Y0255282D01*
X0036670Y0256281D02*
X0036500Y0256281D01*
X0036500Y0257279D02*
X0036600Y0257279D01*
X0036600Y0258278D02*
X0036500Y0258278D01*
X0036500Y0259277D02*
X0036881Y0259277D01*
X0036500Y0260275D02*
X0037295Y0260275D01*
X0036500Y0261274D02*
X0038113Y0261274D01*
X0039353Y0262272D02*
X0036500Y0262272D01*
X0036500Y0263271D02*
X0038616Y0263271D01*
X0037618Y0264269D02*
X0036500Y0264269D01*
X0036500Y0265268D02*
X0037090Y0265268D01*
X0036676Y0266266D02*
X0036500Y0266266D01*
X0036500Y0267265D02*
X0036600Y0267265D01*
X0036600Y0268263D02*
X0036500Y0268263D01*
X0036500Y0269262D02*
X0036875Y0269262D01*
X0036500Y0270260D02*
X0037289Y0270260D01*
X0036500Y0271259D02*
X0038098Y0271259D01*
X0039317Y0272257D02*
X0036500Y0272257D01*
X0036500Y0273256D02*
X0038631Y0273256D01*
X0037633Y0274254D02*
X0036500Y0274254D01*
X0036500Y0275253D02*
X0037096Y0275253D01*
X0036682Y0276251D02*
X0036500Y0276251D01*
X0036500Y0277250D02*
X0036600Y0277250D01*
X0036600Y0278248D02*
X0036500Y0278248D01*
X0036500Y0279247D02*
X0036869Y0279247D01*
X0036500Y0280245D02*
X0037282Y0280245D01*
X0036500Y0281244D02*
X0038083Y0281244D01*
X0039281Y0282242D02*
X0036500Y0282242D01*
X0036500Y0283241D02*
X0090443Y0283241D01*
X0090443Y0284239D02*
X0036500Y0284239D01*
X0036500Y0285238D02*
X0090443Y0285238D01*
X0088626Y0286236D02*
X0074155Y0286236D01*
X0074075Y0286224D02*
X0074899Y0286354D01*
X0075692Y0286612D01*
X0076435Y0286991D01*
X0077110Y0287481D01*
X0077700Y0288071D01*
X0078190Y0288746D01*
X0078569Y0289489D01*
X0078827Y0290283D01*
X0078957Y0291106D01*
X0078957Y0291138D01*
X0074043Y0291138D01*
X0074043Y0286224D01*
X0074075Y0286224D01*
X0074043Y0286236D02*
X0073272Y0286236D01*
X0073272Y0286224D02*
X0073272Y0291138D01*
X0074043Y0291138D01*
X0074043Y0291909D01*
X0078957Y0291909D01*
X0078957Y0291941D01*
X0078827Y0292765D01*
X0078569Y0293558D01*
X0078190Y0294301D01*
X0077700Y0294976D01*
X0077110Y0295566D01*
X0076435Y0296057D01*
X0075692Y0296435D01*
X0074899Y0296693D01*
X0074075Y0296824D01*
X0074043Y0296824D01*
X0074043Y0291910D01*
X0073272Y0291910D01*
X0073272Y0296824D01*
X0073240Y0296824D01*
X0072416Y0296693D01*
X0071623Y0296435D01*
X0070880Y0296057D01*
X0070205Y0295566D01*
X0069615Y0294976D01*
X0069125Y0294301D01*
X0068746Y0293558D01*
X0068488Y0292765D01*
X0068357Y0291941D01*
X0068357Y0291909D01*
X0073272Y0291909D01*
X0073272Y0291138D01*
X0068357Y0291138D01*
X0068357Y0291106D01*
X0068488Y0290283D01*
X0068746Y0289489D01*
X0069125Y0288746D01*
X0069615Y0288071D01*
X0070205Y0287481D01*
X0070880Y0286991D01*
X0071623Y0286612D01*
X0072416Y0286354D01*
X0073240Y0286224D01*
X0073272Y0286224D01*
X0073160Y0286236D02*
X0036500Y0286236D01*
X0036500Y0287235D02*
X0070544Y0287235D01*
X0069497Y0288233D02*
X0036500Y0288233D01*
X0036500Y0289232D02*
X0068877Y0289232D01*
X0068505Y0290230D02*
X0036500Y0290230D01*
X0036500Y0291229D02*
X0073272Y0291229D01*
X0074043Y0291229D02*
X0087843Y0291229D01*
X0087843Y0292227D02*
X0078912Y0292227D01*
X0078677Y0293226D02*
X0087843Y0293226D01*
X0087843Y0294224D02*
X0078230Y0294224D01*
X0077454Y0295223D02*
X0087843Y0295223D01*
X0088036Y0296221D02*
X0076112Y0296221D01*
X0074043Y0296221D02*
X0073272Y0296221D01*
X0073272Y0295223D02*
X0074043Y0295223D01*
X0074043Y0294224D02*
X0073272Y0294224D01*
X0073272Y0293226D02*
X0074043Y0293226D01*
X0074043Y0292227D02*
X0073272Y0292227D01*
X0073272Y0290230D02*
X0074043Y0290230D01*
X0074043Y0289232D02*
X0073272Y0289232D01*
X0073272Y0288233D02*
X0074043Y0288233D01*
X0074043Y0287235D02*
X0073272Y0287235D01*
X0076771Y0287235D02*
X0087843Y0287235D01*
X0087843Y0288233D02*
X0077818Y0288233D01*
X0078438Y0289232D02*
X0087843Y0289232D01*
X0087843Y0290230D02*
X0078810Y0290230D01*
X0071203Y0296221D02*
X0057500Y0296221D01*
X0057500Y0295223D02*
X0069861Y0295223D01*
X0069085Y0294224D02*
X0057168Y0294224D01*
X0055986Y0293226D02*
X0068638Y0293226D01*
X0068403Y0292227D02*
X0036500Y0292227D01*
X0044719Y0282242D02*
X0090443Y0282242D01*
X0090443Y0281244D02*
X0045917Y0281244D01*
X0046718Y0280245D02*
X0090443Y0280245D01*
X0090443Y0279247D02*
X0047131Y0279247D01*
X0047400Y0278248D02*
X0090443Y0278248D01*
X0090443Y0277250D02*
X0047400Y0277250D01*
X0047318Y0276251D02*
X0090443Y0276251D01*
X0090443Y0275253D02*
X0046904Y0275253D01*
X0046367Y0274254D02*
X0090443Y0274254D01*
X0090443Y0273256D02*
X0045369Y0273256D01*
X0044683Y0272257D02*
X0090443Y0272257D01*
X0090443Y0271259D02*
X0045902Y0271259D01*
X0046711Y0270260D02*
X0090443Y0270260D01*
X0090443Y0269262D02*
X0047125Y0269262D01*
X0047400Y0268263D02*
X0090443Y0268263D01*
X0090443Y0267265D02*
X0047400Y0267265D01*
X0047324Y0266266D02*
X0075543Y0266266D01*
X0074143Y0265268D02*
X0046910Y0265268D01*
X0046382Y0264269D02*
X0073670Y0264269D01*
X0073600Y0263271D02*
X0045384Y0263271D01*
X0044647Y0262272D02*
X0073600Y0262272D01*
X0073600Y0261274D02*
X0045887Y0261274D01*
X0046705Y0260275D02*
X0073600Y0260275D01*
X0073600Y0259277D02*
X0047119Y0259277D01*
X0047400Y0258278D02*
X0073600Y0258278D01*
X0073600Y0257279D02*
X0047400Y0257279D01*
X0047330Y0256281D02*
X0073600Y0256281D01*
X0073600Y0255282D02*
X0046917Y0255282D01*
X0046397Y0254284D02*
X0073600Y0254284D01*
X0073600Y0253285D02*
X0045399Y0253285D01*
X0044611Y0252287D02*
X0073600Y0252287D01*
X0073600Y0251288D02*
X0045872Y0251288D01*
X0046699Y0250290D02*
X0073600Y0250290D01*
X0073600Y0249291D02*
X0047113Y0249291D01*
X0047400Y0248293D02*
X0073600Y0248293D01*
X0073600Y0247294D02*
X0047400Y0247294D01*
X0047336Y0246296D02*
X0073600Y0246296D01*
X0073600Y0245297D02*
X0046923Y0245297D01*
X0046412Y0244299D02*
X0073600Y0244299D01*
X0073600Y0243300D02*
X0045413Y0243300D01*
X0044575Y0242302D02*
X0073600Y0242302D01*
X0073600Y0241303D02*
X0045857Y0241303D01*
X0046693Y0240305D02*
X0073600Y0240305D01*
X0073600Y0239306D02*
X0047107Y0239306D01*
X0047400Y0238308D02*
X0073600Y0238308D01*
X0073600Y0237309D02*
X0047400Y0237309D01*
X0047343Y0236311D02*
X0073600Y0236311D01*
X0073600Y0235312D02*
X0046929Y0235312D01*
X0046427Y0234314D02*
X0073600Y0234314D01*
X0073600Y0233315D02*
X0045428Y0233315D01*
X0044539Y0232317D02*
X0073600Y0232317D01*
X0073600Y0231318D02*
X0045842Y0231318D01*
X0046687Y0230320D02*
X0072968Y0230320D01*
X0072401Y0229321D02*
X0047100Y0229321D01*
X0047400Y0228323D02*
X0072025Y0228323D01*
X0072025Y0227324D02*
X0047400Y0227324D01*
X0047349Y0226326D02*
X0072153Y0226326D01*
X0072566Y0225327D02*
X0046935Y0225327D01*
X0046442Y0224329D02*
X0073367Y0224329D01*
X0074931Y0223330D02*
X0045443Y0223330D01*
X0044503Y0222332D02*
X0190171Y0222332D01*
X0189422Y0221582D02*
X0188600Y0219598D01*
X0188600Y0217449D01*
X0189422Y0215465D01*
X0190941Y0213946D01*
X0192926Y0213124D01*
X0195074Y0213124D01*
X0197059Y0213946D01*
X0198578Y0215465D01*
X0199400Y0217449D01*
X0199400Y0219598D01*
X0198578Y0221582D01*
X0197059Y0223102D01*
X0195074Y0223924D01*
X0192926Y0223924D01*
X0190941Y0223102D01*
X0189422Y0221582D01*
X0189319Y0221333D02*
X0045827Y0221333D01*
X0046681Y0220335D02*
X0188905Y0220335D01*
X0188600Y0219336D02*
X0047094Y0219336D01*
X0047400Y0218338D02*
X0188600Y0218338D01*
X0188646Y0217339D02*
X0047400Y0217339D01*
X0047355Y0216341D02*
X0189059Y0216341D01*
X0189545Y0215342D02*
X0046941Y0215342D01*
X0046457Y0214343D02*
X0190543Y0214343D01*
X0192391Y0213345D02*
X0045458Y0213345D01*
X0044467Y0212346D02*
X0208600Y0212346D01*
X0208600Y0211348D02*
X0195257Y0211348D01*
X0195074Y0211424D02*
X0192926Y0211424D01*
X0190941Y0210602D01*
X0189422Y0209082D01*
X0188600Y0207098D01*
X0188600Y0204949D01*
X0189422Y0202965D01*
X0190941Y0201446D01*
X0192926Y0200624D01*
X0195074Y0200624D01*
X0197059Y0201446D01*
X0198578Y0202965D01*
X0199400Y0204949D01*
X0199400Y0207098D01*
X0198578Y0209082D01*
X0197059Y0210602D01*
X0195074Y0211424D01*
X0195609Y0213345D02*
X0208600Y0213345D01*
X0208600Y0214343D02*
X0197457Y0214343D01*
X0198455Y0215342D02*
X0208600Y0215342D01*
X0208600Y0216341D02*
X0198941Y0216341D01*
X0199354Y0217339D02*
X0208600Y0217339D01*
X0208600Y0218338D02*
X0199400Y0218338D01*
X0199400Y0219336D02*
X0208600Y0219336D01*
X0208600Y0220335D02*
X0199095Y0220335D01*
X0198681Y0221333D02*
X0208600Y0221333D01*
X0208600Y0222332D02*
X0197829Y0222332D01*
X0196507Y0223330D02*
X0208600Y0223330D01*
X0208600Y0224329D02*
X0093350Y0224329D01*
X0093285Y0224263D02*
X0093761Y0224739D01*
X0094156Y0225283D01*
X0094462Y0225883D01*
X0094670Y0226523D01*
X0094775Y0227187D01*
X0094775Y0227236D01*
X0090787Y0227236D01*
X0090787Y0223249D01*
X0090836Y0223249D01*
X0091501Y0223354D01*
X0092141Y0223562D01*
X0092740Y0223867D01*
X0093285Y0224263D01*
X0094179Y0225327D02*
X0208600Y0225327D01*
X0208600Y0226326D02*
X0196234Y0226326D01*
X0195996Y0226205D02*
X0196725Y0226576D01*
X0197388Y0227057D01*
X0197966Y0227636D01*
X0198447Y0228298D01*
X0198819Y0229028D01*
X0199072Y0229806D01*
X0199186Y0230524D01*
X0194500Y0230524D01*
X0194500Y0231524D01*
X0193500Y0231524D01*
X0193500Y0236209D01*
X0192782Y0236096D01*
X0192004Y0235843D01*
X0191275Y0235471D01*
X0190612Y0234990D01*
X0190034Y0234411D01*
X0189553Y0233749D01*
X0189181Y0233020D01*
X0188928Y0232241D01*
X0188814Y0231524D01*
X0193500Y0231524D01*
X0193500Y0230524D01*
X0188814Y0230524D01*
X0188928Y0229806D01*
X0189181Y0229028D01*
X0189553Y0228298D01*
X0190034Y0227636D01*
X0190612Y0227057D01*
X0191275Y0226576D01*
X0192004Y0226205D01*
X0192782Y0225952D01*
X0193500Y0225838D01*
X0193500Y0230524D01*
X0194500Y0230524D01*
X0194500Y0225838D01*
X0195218Y0225952D01*
X0195996Y0226205D01*
X0194500Y0226326D02*
X0193500Y0226326D01*
X0193500Y0227324D02*
X0194500Y0227324D01*
X0194500Y0228323D02*
X0193500Y0228323D01*
X0193500Y0229321D02*
X0194500Y0229321D01*
X0194500Y0230320D02*
X0193500Y0230320D01*
X0193500Y0231318D02*
X0092469Y0231318D01*
X0092740Y0231180D02*
X0092141Y0231485D01*
X0091501Y0231693D01*
X0090836Y0231798D01*
X0090787Y0231798D01*
X0090787Y0227811D01*
X0090213Y0227811D01*
X0090213Y0231798D01*
X0090164Y0231798D01*
X0089499Y0231693D01*
X0088859Y0231485D01*
X0088260Y0231180D01*
X0087715Y0230784D01*
X0087239Y0230308D01*
X0086844Y0229764D01*
X0086538Y0229165D01*
X0086330Y0228525D01*
X0086225Y0227860D01*
X0086225Y0227811D01*
X0090213Y0227811D01*
X0090213Y0227236D01*
X0090787Y0227236D01*
X0090787Y0227811D01*
X0094775Y0227811D01*
X0094775Y0227860D01*
X0094670Y0228525D01*
X0094462Y0229165D01*
X0094156Y0229764D01*
X0093761Y0230308D01*
X0093285Y0230784D01*
X0092740Y0231180D01*
X0093749Y0230320D02*
X0188847Y0230320D01*
X0189086Y0229321D02*
X0094382Y0229321D01*
X0094702Y0228323D02*
X0189540Y0228323D01*
X0190346Y0227324D02*
X0090787Y0227324D01*
X0090213Y0227324D02*
X0080975Y0227324D01*
X0080975Y0228323D02*
X0086298Y0228323D01*
X0086618Y0229321D02*
X0080599Y0229321D01*
X0080032Y0230320D02*
X0087251Y0230320D01*
X0088531Y0231318D02*
X0079400Y0231318D01*
X0079400Y0232317D02*
X0188953Y0232317D01*
X0189332Y0233315D02*
X0079400Y0233315D01*
X0079400Y0234314D02*
X0189963Y0234314D01*
X0191056Y0235312D02*
X0079400Y0235312D01*
X0079400Y0236311D02*
X0226657Y0236311D01*
X0226600Y0237309D02*
X0079400Y0237309D01*
X0079400Y0238308D02*
X0226600Y0238308D01*
X0226893Y0239306D02*
X0079400Y0239306D01*
X0079400Y0240305D02*
X0227307Y0240305D01*
X0228143Y0241303D02*
X0079400Y0241303D01*
X0079400Y0242302D02*
X0229425Y0242302D01*
X0228587Y0243300D02*
X0163193Y0243300D01*
X0163401Y0243387D02*
X0164920Y0244906D01*
X0165743Y0246890D01*
X0165743Y0249039D01*
X0164920Y0251023D01*
X0163401Y0252542D01*
X0161417Y0253365D01*
X0159268Y0253365D01*
X0157284Y0252542D01*
X0155765Y0251023D01*
X0155421Y0250194D01*
X0155078Y0251023D01*
X0153559Y0252542D01*
X0151574Y0253365D01*
X0149426Y0253365D01*
X0147441Y0252542D01*
X0145922Y0251023D01*
X0145479Y0249953D01*
X0145477Y0249961D01*
X0145105Y0250690D01*
X0144624Y0251352D01*
X0144045Y0251931D01*
X0143383Y0252412D01*
X0142654Y0252784D01*
X0141875Y0253037D01*
X0141142Y0253153D01*
X0141142Y0248449D01*
X0140173Y0248449D01*
X0140173Y0247480D01*
X0141142Y0247480D01*
X0141142Y0242776D01*
X0141875Y0242893D01*
X0142654Y0243146D01*
X0143383Y0243517D01*
X0144045Y0243998D01*
X0144624Y0244577D01*
X0145105Y0245239D01*
X0145477Y0245968D01*
X0145479Y0245976D01*
X0145922Y0244906D01*
X0147441Y0243387D01*
X0149426Y0242565D01*
X0151574Y0242565D01*
X0153559Y0243387D01*
X0155078Y0244906D01*
X0155421Y0245735D01*
X0155765Y0244906D01*
X0157284Y0243387D01*
X0159268Y0242565D01*
X0161417Y0242565D01*
X0163401Y0243387D01*
X0164314Y0244299D02*
X0227588Y0244299D01*
X0227077Y0245297D02*
X0165083Y0245297D01*
X0165496Y0246296D02*
X0226664Y0246296D01*
X0226600Y0247294D02*
X0165743Y0247294D01*
X0165743Y0248293D02*
X0226600Y0248293D01*
X0226887Y0249291D02*
X0165638Y0249291D01*
X0165224Y0250290D02*
X0227301Y0250290D01*
X0228128Y0251288D02*
X0164655Y0251288D01*
X0163657Y0252287D02*
X0229389Y0252287D01*
X0228601Y0253285D02*
X0161608Y0253285D01*
X0159077Y0253285D02*
X0151765Y0253285D01*
X0153814Y0252287D02*
X0157028Y0252287D01*
X0156030Y0251288D02*
X0154813Y0251288D01*
X0155382Y0250290D02*
X0155461Y0250290D01*
X0155602Y0245297D02*
X0155240Y0245297D01*
X0154471Y0244299D02*
X0156371Y0244299D01*
X0157492Y0243300D02*
X0153350Y0243300D01*
X0147650Y0243300D02*
X0142957Y0243300D01*
X0144346Y0244299D02*
X0146529Y0244299D01*
X0145760Y0245297D02*
X0145135Y0245297D01*
X0145309Y0250290D02*
X0145618Y0250290D01*
X0146187Y0251288D02*
X0144670Y0251288D01*
X0143555Y0252287D02*
X0147186Y0252287D01*
X0149235Y0253285D02*
X0079400Y0253285D01*
X0079400Y0252287D02*
X0137760Y0252287D01*
X0137932Y0252412D02*
X0137270Y0251931D01*
X0136691Y0251352D01*
X0136210Y0250690D01*
X0135838Y0249961D01*
X0135586Y0249182D01*
X0135469Y0248449D01*
X0140173Y0248449D01*
X0140173Y0253153D01*
X0139440Y0253037D01*
X0138661Y0252784D01*
X0137932Y0252412D01*
X0136645Y0251288D02*
X0079400Y0251288D01*
X0079400Y0250290D02*
X0136006Y0250290D01*
X0135621Y0249291D02*
X0079400Y0249291D01*
X0079400Y0248293D02*
X0140173Y0248293D01*
X0140173Y0247480D02*
X0135469Y0247480D01*
X0135586Y0246747D01*
X0135838Y0245968D01*
X0136210Y0245239D01*
X0136691Y0244577D01*
X0137270Y0243998D01*
X0137932Y0243517D01*
X0138661Y0243146D01*
X0139440Y0242893D01*
X0140173Y0242776D01*
X0140173Y0247480D01*
X0140173Y0247294D02*
X0141142Y0247294D01*
X0141142Y0246296D02*
X0140173Y0246296D01*
X0140173Y0245297D02*
X0141142Y0245297D01*
X0141142Y0244299D02*
X0140173Y0244299D01*
X0140173Y0243300D02*
X0141142Y0243300D01*
X0138358Y0243300D02*
X0079400Y0243300D01*
X0079400Y0244299D02*
X0136969Y0244299D01*
X0136180Y0245297D02*
X0079400Y0245297D01*
X0079400Y0246296D02*
X0135732Y0246296D01*
X0135499Y0247294D02*
X0079400Y0247294D01*
X0079400Y0254284D02*
X0227603Y0254284D01*
X0227083Y0255282D02*
X0079400Y0255282D01*
X0079400Y0256281D02*
X0226670Y0256281D01*
X0226600Y0257279D02*
X0079400Y0257279D01*
X0079400Y0258278D02*
X0226600Y0258278D01*
X0226881Y0259277D02*
X0079400Y0259277D01*
X0079400Y0260275D02*
X0227295Y0260275D01*
X0228113Y0261274D02*
X0095194Y0261274D01*
X0095963Y0262272D02*
X0229353Y0262272D01*
X0228616Y0263271D02*
X0096243Y0263271D01*
X0096243Y0264269D02*
X0227618Y0264269D01*
X0227090Y0265268D02*
X0096243Y0265268D01*
X0096243Y0266266D02*
X0226676Y0266266D01*
X0226600Y0267265D02*
X0096243Y0267265D01*
X0096243Y0268263D02*
X0130831Y0268263D01*
X0131664Y0267918D02*
X0134690Y0267918D01*
X0137485Y0269076D01*
X0139625Y0271215D01*
X0140783Y0274011D01*
X0140783Y0277036D01*
X0139625Y0279832D01*
X0137485Y0281971D01*
X0134690Y0283129D01*
X0131664Y0283129D01*
X0128869Y0281971D01*
X0126730Y0279832D01*
X0125572Y0277036D01*
X0125572Y0274011D01*
X0126730Y0271215D01*
X0128869Y0269076D01*
X0131664Y0267918D01*
X0128683Y0269262D02*
X0096243Y0269262D01*
X0096243Y0270260D02*
X0127685Y0270260D01*
X0126712Y0271259D02*
X0096243Y0271259D01*
X0096243Y0272257D02*
X0126298Y0272257D01*
X0125884Y0273256D02*
X0096243Y0273256D01*
X0096243Y0274254D02*
X0125572Y0274254D01*
X0125572Y0275253D02*
X0096243Y0275253D01*
X0096243Y0276251D02*
X0125572Y0276251D01*
X0125660Y0277250D02*
X0096243Y0277250D01*
X0096243Y0278248D02*
X0126074Y0278248D01*
X0126487Y0279247D02*
X0096243Y0279247D01*
X0096243Y0280245D02*
X0127143Y0280245D01*
X0128141Y0281244D02*
X0096243Y0281244D01*
X0096243Y0282242D02*
X0129523Y0282242D01*
X0136831Y0282242D02*
X0164169Y0282242D01*
X0163515Y0281971D02*
X0161375Y0279832D01*
X0160217Y0277036D01*
X0160217Y0274011D01*
X0161375Y0271215D01*
X0163515Y0269076D01*
X0166310Y0267918D01*
X0169336Y0267918D01*
X0172131Y0269076D01*
X0174270Y0271215D01*
X0175428Y0274011D01*
X0175428Y0277036D01*
X0174270Y0279832D01*
X0172131Y0281971D01*
X0169336Y0283129D01*
X0166310Y0283129D01*
X0163515Y0281971D01*
X0162787Y0281244D02*
X0138213Y0281244D01*
X0139211Y0280245D02*
X0161789Y0280245D01*
X0161133Y0279247D02*
X0139867Y0279247D01*
X0140281Y0278248D02*
X0160719Y0278248D01*
X0160306Y0277250D02*
X0140694Y0277250D01*
X0140783Y0276251D02*
X0160217Y0276251D01*
X0160217Y0275253D02*
X0140783Y0275253D01*
X0140783Y0274254D02*
X0160217Y0274254D01*
X0160530Y0273256D02*
X0140470Y0273256D01*
X0140056Y0272257D02*
X0160944Y0272257D01*
X0161357Y0271259D02*
X0139643Y0271259D01*
X0138669Y0270260D02*
X0162331Y0270260D01*
X0163329Y0269262D02*
X0137671Y0269262D01*
X0135523Y0268263D02*
X0165477Y0268263D01*
X0170169Y0268263D02*
X0226600Y0268263D01*
X0226875Y0269262D02*
X0172317Y0269262D01*
X0173315Y0270260D02*
X0227289Y0270260D01*
X0228098Y0271259D02*
X0174288Y0271259D01*
X0174702Y0272257D02*
X0229317Y0272257D01*
X0228631Y0273256D02*
X0175116Y0273256D01*
X0175428Y0274254D02*
X0227633Y0274254D01*
X0227096Y0275253D02*
X0175428Y0275253D01*
X0175428Y0276251D02*
X0226682Y0276251D01*
X0226600Y0277250D02*
X0175340Y0277250D01*
X0174926Y0278248D02*
X0226600Y0278248D01*
X0226869Y0279247D02*
X0174513Y0279247D01*
X0173857Y0280245D02*
X0227282Y0280245D01*
X0228083Y0281244D02*
X0172859Y0281244D01*
X0171477Y0282242D02*
X0229281Y0282242D01*
X0234719Y0282242D02*
X0241900Y0282242D01*
X0241900Y0281244D02*
X0235917Y0281244D01*
X0236718Y0280245D02*
X0241900Y0280245D01*
X0241900Y0279247D02*
X0237131Y0279247D01*
X0237400Y0278248D02*
X0241900Y0278248D01*
X0241900Y0277250D02*
X0237400Y0277250D01*
X0237318Y0276251D02*
X0241900Y0276251D01*
X0241900Y0275253D02*
X0236904Y0275253D01*
X0236367Y0274254D02*
X0241900Y0274254D01*
X0241900Y0273256D02*
X0235369Y0273256D01*
X0234683Y0272257D02*
X0241900Y0272257D01*
X0241900Y0271259D02*
X0235902Y0271259D01*
X0236711Y0270260D02*
X0241900Y0270260D01*
X0241900Y0269262D02*
X0237125Y0269262D01*
X0237400Y0268263D02*
X0241900Y0268263D01*
X0241900Y0267265D02*
X0237400Y0267265D01*
X0237324Y0266266D02*
X0241900Y0266266D01*
X0241900Y0265268D02*
X0236910Y0265268D01*
X0236382Y0264269D02*
X0241900Y0264269D01*
X0241900Y0263271D02*
X0235384Y0263271D01*
X0234647Y0262272D02*
X0241900Y0262272D01*
X0241900Y0261274D02*
X0235887Y0261274D01*
X0236705Y0260275D02*
X0241900Y0260275D01*
X0241900Y0259277D02*
X0237119Y0259277D01*
X0237400Y0258278D02*
X0241900Y0258278D01*
X0241900Y0257279D02*
X0237400Y0257279D01*
X0237330Y0256281D02*
X0241900Y0256281D01*
X0241900Y0255282D02*
X0236917Y0255282D01*
X0236397Y0254284D02*
X0241900Y0254284D01*
X0241900Y0253285D02*
X0235399Y0253285D01*
X0234611Y0252287D02*
X0241900Y0252287D01*
X0241900Y0251288D02*
X0235872Y0251288D01*
X0236699Y0250290D02*
X0241900Y0250290D01*
X0241900Y0249291D02*
X0237113Y0249291D01*
X0237400Y0248293D02*
X0241900Y0248293D01*
X0241900Y0247294D02*
X0237400Y0247294D01*
X0237336Y0246296D02*
X0241900Y0246296D01*
X0241900Y0245297D02*
X0236923Y0245297D01*
X0236412Y0244299D02*
X0241900Y0244299D01*
X0241900Y0243300D02*
X0235413Y0243300D01*
X0234575Y0242302D02*
X0241900Y0242302D01*
X0241900Y0241303D02*
X0235857Y0241303D01*
X0236693Y0240305D02*
X0241900Y0240305D01*
X0241900Y0239306D02*
X0237107Y0239306D01*
X0237400Y0238308D02*
X0241900Y0238308D01*
X0241900Y0237309D02*
X0237400Y0237309D01*
X0237343Y0236311D02*
X0241900Y0236311D01*
X0241900Y0235312D02*
X0236929Y0235312D01*
X0236427Y0234314D02*
X0241900Y0234314D01*
X0241900Y0233315D02*
X0235428Y0233315D01*
X0234539Y0232317D02*
X0241900Y0232317D01*
X0241900Y0231318D02*
X0235842Y0231318D01*
X0236687Y0230320D02*
X0241900Y0230320D01*
X0241900Y0229321D02*
X0237100Y0229321D01*
X0237400Y0228323D02*
X0241900Y0228323D01*
X0241900Y0227324D02*
X0237400Y0227324D01*
X0237349Y0226326D02*
X0241900Y0226326D01*
X0241900Y0225327D02*
X0236935Y0225327D01*
X0236442Y0224329D02*
X0241900Y0224329D01*
X0241900Y0223330D02*
X0235443Y0223330D01*
X0233576Y0222332D02*
X0241900Y0222332D01*
X0241900Y0221333D02*
X0214400Y0221333D01*
X0214400Y0220335D02*
X0241900Y0220335D01*
X0241900Y0219336D02*
X0214400Y0219336D01*
X0214400Y0218338D02*
X0241900Y0218338D01*
X0241900Y0217339D02*
X0214400Y0217339D01*
X0214400Y0216341D02*
X0241900Y0216341D01*
X0241900Y0215342D02*
X0214400Y0215342D01*
X0214400Y0214343D02*
X0241900Y0214343D01*
X0241900Y0213345D02*
X0214400Y0213345D01*
X0214400Y0222332D02*
X0230424Y0222332D01*
X0228557Y0223330D02*
X0214400Y0223330D01*
X0214400Y0224329D02*
X0227558Y0224329D01*
X0228158Y0231318D02*
X0194500Y0231318D01*
X0194500Y0231524D02*
X0199186Y0231524D01*
X0199072Y0232241D01*
X0198819Y0233020D01*
X0198447Y0233749D01*
X0197966Y0234411D01*
X0197388Y0234990D01*
X0196725Y0235471D01*
X0195996Y0235843D01*
X0195218Y0236096D01*
X0194500Y0236209D01*
X0194500Y0231524D01*
X0194500Y0232317D02*
X0193500Y0232317D01*
X0193500Y0233315D02*
X0194500Y0233315D01*
X0194500Y0234314D02*
X0193500Y0234314D01*
X0193500Y0235312D02*
X0194500Y0235312D01*
X0196944Y0235312D02*
X0227071Y0235312D01*
X0227573Y0234314D02*
X0198037Y0234314D01*
X0198668Y0233315D02*
X0228572Y0233315D01*
X0229461Y0232317D02*
X0199047Y0232317D01*
X0199153Y0230320D02*
X0210672Y0230320D01*
X0209196Y0229321D02*
X0198914Y0229321D01*
X0198460Y0228323D02*
X0208692Y0228323D01*
X0208600Y0227324D02*
X0197654Y0227324D01*
X0191766Y0226326D02*
X0094606Y0226326D01*
X0091350Y0223330D02*
X0191493Y0223330D01*
X0192743Y0211348D02*
X0045812Y0211348D01*
X0046674Y0210349D02*
X0190689Y0210349D01*
X0189691Y0209351D02*
X0047088Y0209351D01*
X0047400Y0208352D02*
X0189120Y0208352D01*
X0188706Y0207354D02*
X0047400Y0207354D01*
X0047361Y0206355D02*
X0188600Y0206355D01*
X0188600Y0205357D02*
X0046947Y0205357D01*
X0046472Y0204358D02*
X0188845Y0204358D01*
X0189258Y0203360D02*
X0159432Y0203360D01*
X0160491Y0202361D02*
X0190026Y0202361D01*
X0191141Y0201363D02*
X0161082Y0201363D01*
X0161475Y0200364D02*
X0208600Y0200364D01*
X0208600Y0199366D02*
X0161475Y0199366D01*
X0161365Y0198367D02*
X0208600Y0198367D01*
X0208600Y0197369D02*
X0160951Y0197369D01*
X0160175Y0196370D02*
X0208600Y0196370D01*
X0208600Y0201363D02*
X0196859Y0201363D01*
X0197974Y0202361D02*
X0208600Y0202361D01*
X0208600Y0203360D02*
X0198742Y0203360D01*
X0199155Y0204358D02*
X0208600Y0204358D01*
X0208600Y0205357D02*
X0199400Y0205357D01*
X0199400Y0206355D02*
X0208600Y0206355D01*
X0208600Y0207354D02*
X0199294Y0207354D01*
X0198880Y0208352D02*
X0208600Y0208352D01*
X0208600Y0209351D02*
X0198309Y0209351D01*
X0197311Y0210349D02*
X0208600Y0210349D01*
X0155280Y0181393D02*
X0047376Y0181393D01*
X0047400Y0182391D02*
X0153804Y0182391D01*
X0153040Y0183390D02*
X0047400Y0183390D01*
X0047073Y0184388D02*
X0152627Y0184388D01*
X0152525Y0185387D02*
X0046659Y0185387D01*
X0045775Y0186385D02*
X0152525Y0186385D01*
X0152927Y0187384D02*
X0044378Y0187384D01*
X0045495Y0188382D02*
X0153530Y0188382D01*
X0153509Y0202361D02*
X0043648Y0202361D01*
X0045473Y0203360D02*
X0154568Y0203360D01*
X0141142Y0249291D02*
X0140173Y0249291D01*
X0140173Y0250290D02*
X0141142Y0250290D01*
X0141142Y0251288D02*
X0140173Y0251288D01*
X0140173Y0252287D02*
X0141142Y0252287D01*
X0098843Y0287235D02*
X0241900Y0287235D01*
X0241900Y0288233D02*
X0098843Y0288233D01*
X0098843Y0289232D02*
X0241900Y0289232D01*
X0241900Y0290230D02*
X0098843Y0290230D01*
X0098843Y0291229D02*
X0241900Y0291229D01*
X0241900Y0292227D02*
X0098843Y0292227D01*
X0098843Y0293226D02*
X0241900Y0293226D01*
X0241900Y0294224D02*
X0098843Y0294224D01*
X0098843Y0295223D02*
X0241900Y0295223D01*
X0241900Y0296221D02*
X0098649Y0296221D01*
X0096243Y0297220D02*
X0241900Y0297220D01*
X0241900Y0298218D02*
X0096243Y0298218D01*
X0096243Y0299217D02*
X0241900Y0299217D01*
X0241900Y0300215D02*
X0096243Y0300215D01*
X0096243Y0301214D02*
X0241900Y0301214D01*
X0241900Y0302212D02*
X0096243Y0302212D01*
X0096243Y0303211D02*
X0241900Y0303211D01*
X0241900Y0304210D02*
X0096243Y0304210D01*
X0096243Y0305208D02*
X0241900Y0305208D01*
X0241900Y0306207D02*
X0096243Y0306207D01*
X0096243Y0307205D02*
X0241900Y0307205D01*
X0241900Y0308204D02*
X0096243Y0308204D01*
X0096243Y0309202D02*
X0241900Y0309202D01*
X0241900Y0310201D02*
X0096243Y0310201D01*
X0096243Y0311199D02*
X0241900Y0311199D01*
X0241900Y0312198D02*
X0096243Y0312198D01*
X0096243Y0313196D02*
X0241900Y0313196D01*
X0241900Y0314195D02*
X0096243Y0314195D01*
X0096243Y0315193D02*
X0241900Y0315193D01*
X0241900Y0316192D02*
X0096243Y0316192D01*
X0096243Y0317190D02*
X0241900Y0317190D01*
X0241900Y0318189D02*
X0096243Y0318189D01*
X0096207Y0319187D02*
X0203532Y0319187D01*
X0202600Y0320186D02*
X0095782Y0320186D01*
X0094497Y0321184D02*
X0202600Y0321184D01*
X0202600Y0322183D02*
X0193929Y0322183D01*
X0193996Y0322205D02*
X0194725Y0322576D01*
X0195388Y0323057D01*
X0195966Y0323636D01*
X0196447Y0324298D01*
X0196819Y0325028D01*
X0197072Y0325806D01*
X0197186Y0326524D01*
X0192500Y0326524D01*
X0192500Y0327524D01*
X0191500Y0327524D01*
X0191500Y0332209D01*
X0190782Y0332096D01*
X0190004Y0331843D01*
X0189275Y0331471D01*
X0188612Y0330990D01*
X0188034Y0330411D01*
X0187553Y0329749D01*
X0187181Y0329020D01*
X0186928Y0328241D01*
X0186814Y0327524D01*
X0191500Y0327524D01*
X0191500Y0326524D01*
X0186814Y0326524D01*
X0186928Y0325806D01*
X0187181Y0325028D01*
X0187553Y0324298D01*
X0188034Y0323636D01*
X0188612Y0323057D01*
X0189275Y0322576D01*
X0190004Y0322205D01*
X0190782Y0321952D01*
X0191500Y0321838D01*
X0191500Y0326524D01*
X0192500Y0326524D01*
X0192500Y0321838D01*
X0193218Y0321952D01*
X0193996Y0322205D01*
X0192500Y0322183D02*
X0191500Y0322183D01*
X0191500Y0323181D02*
X0192500Y0323181D01*
X0192500Y0324180D02*
X0191500Y0324180D01*
X0191500Y0325178D02*
X0192500Y0325178D01*
X0192500Y0326177D02*
X0191500Y0326177D01*
X0191500Y0327175D02*
X0177400Y0327175D01*
X0177400Y0326177D02*
X0186869Y0326177D01*
X0187132Y0325178D02*
X0177081Y0325178D01*
X0176667Y0324180D02*
X0187639Y0324180D01*
X0188488Y0323181D02*
X0175794Y0323181D01*
X0174424Y0322183D02*
X0190071Y0322183D01*
X0192500Y0327175D02*
X0202600Y0327175D01*
X0202600Y0326177D02*
X0197131Y0326177D01*
X0196868Y0325178D02*
X0202600Y0325178D01*
X0202600Y0324180D02*
X0196361Y0324180D01*
X0195512Y0323181D02*
X0202600Y0323181D01*
X0202600Y0328174D02*
X0197083Y0328174D01*
X0197072Y0328241D02*
X0196819Y0329020D01*
X0196447Y0329749D01*
X0195966Y0330411D01*
X0195388Y0330990D01*
X0194725Y0331471D01*
X0193996Y0331843D01*
X0193218Y0332096D01*
X0192500Y0332209D01*
X0192500Y0327524D01*
X0197186Y0327524D01*
X0197072Y0328241D01*
X0196741Y0329172D02*
X0202845Y0329172D01*
X0196141Y0330171D02*
X0241900Y0330171D01*
X0241900Y0331169D02*
X0195141Y0331169D01*
X0192761Y0332168D02*
X0241900Y0332168D01*
X0241900Y0333166D02*
X0160177Y0333166D01*
X0162278Y0334165D02*
X0241900Y0334165D01*
X0241900Y0335163D02*
X0163276Y0335163D01*
X0163867Y0336162D02*
X0241900Y0336162D01*
X0241900Y0337160D02*
X0164280Y0337160D01*
X0164400Y0338159D02*
X0241900Y0338159D01*
X0241900Y0339157D02*
X0164400Y0339157D01*
X0164169Y0340156D02*
X0241900Y0340156D01*
X0241900Y0341154D02*
X0163755Y0341154D01*
X0157823Y0333166D02*
X0140177Y0333166D01*
X0142278Y0334165D02*
X0146153Y0334165D01*
X0145014Y0335163D02*
X0143276Y0335163D01*
X0143867Y0336162D02*
X0144367Y0336162D01*
X0148500Y0336162D02*
X0149500Y0336162D01*
X0149500Y0337160D02*
X0148500Y0337160D01*
X0148500Y0335163D02*
X0149500Y0335163D01*
X0149500Y0334165D02*
X0148500Y0334165D01*
X0151847Y0334165D02*
X0155722Y0334165D01*
X0154723Y0335163D02*
X0152986Y0335163D01*
X0153633Y0336162D02*
X0154133Y0336162D01*
X0167045Y0329172D02*
X0134162Y0329172D01*
X0134186Y0329024D02*
X0134072Y0329741D01*
X0133819Y0330520D01*
X0133447Y0331249D01*
X0132966Y0331911D01*
X0132388Y0332490D01*
X0131725Y0332971D01*
X0130996Y0333343D01*
X0130218Y0333596D01*
X0129500Y0333709D01*
X0129500Y0329024D01*
X0128500Y0329024D01*
X0128500Y0333709D01*
X0127782Y0333596D01*
X0127004Y0333343D01*
X0126275Y0332971D01*
X0125612Y0332490D01*
X0125034Y0331911D01*
X0124553Y0331249D01*
X0124181Y0330520D01*
X0123928Y0329741D01*
X0123814Y0329024D01*
X0128500Y0329024D01*
X0128500Y0328024D01*
X0123814Y0328024D01*
X0123928Y0327306D01*
X0124181Y0326528D01*
X0124553Y0325798D01*
X0125034Y0325136D01*
X0125612Y0324557D01*
X0126275Y0324076D01*
X0127004Y0323705D01*
X0127782Y0323452D01*
X0128500Y0323338D01*
X0128500Y0328024D01*
X0129500Y0328024D01*
X0129500Y0329024D01*
X0134186Y0329024D01*
X0134186Y0328024D02*
X0129500Y0328024D01*
X0129500Y0323338D01*
X0130218Y0323452D01*
X0130996Y0323705D01*
X0131725Y0324076D01*
X0132388Y0324557D01*
X0132966Y0325136D01*
X0133447Y0325798D01*
X0133819Y0326528D01*
X0134072Y0327306D01*
X0134186Y0328024D01*
X0134029Y0327175D02*
X0166600Y0327175D01*
X0166600Y0326177D02*
X0133640Y0326177D01*
X0132997Y0325178D02*
X0166919Y0325178D01*
X0167333Y0324180D02*
X0131868Y0324180D01*
X0129500Y0324180D02*
X0128500Y0324180D01*
X0128500Y0325178D02*
X0129500Y0325178D01*
X0129500Y0326177D02*
X0128500Y0326177D01*
X0128500Y0327175D02*
X0129500Y0327175D01*
X0129500Y0328174D02*
X0166631Y0328174D01*
X0167510Y0330171D02*
X0133932Y0330171D01*
X0133488Y0331169D02*
X0168509Y0331169D01*
X0170308Y0332168D02*
X0132710Y0332168D01*
X0131342Y0333166D02*
X0137823Y0333166D01*
X0133600Y0338159D02*
X0075200Y0338159D01*
X0075200Y0339157D02*
X0133600Y0339157D01*
X0133831Y0340156D02*
X0075200Y0340156D01*
X0075200Y0341154D02*
X0134245Y0341154D01*
X0129500Y0333166D02*
X0128500Y0333166D01*
X0128500Y0332168D02*
X0129500Y0332168D01*
X0129500Y0331169D02*
X0128500Y0331169D01*
X0128500Y0330171D02*
X0129500Y0330171D01*
X0129500Y0329172D02*
X0128500Y0329172D01*
X0128500Y0328174D02*
X0114400Y0328174D01*
X0114400Y0329172D02*
X0123838Y0329172D01*
X0124068Y0330171D02*
X0114163Y0330171D01*
X0113749Y0331169D02*
X0124512Y0331169D01*
X0125290Y0332168D02*
X0112993Y0332168D01*
X0111902Y0333166D02*
X0126658Y0333166D01*
X0123970Y0327175D02*
X0114286Y0327175D01*
X0113873Y0326177D02*
X0124360Y0326177D01*
X0125003Y0325178D02*
X0113291Y0325178D01*
X0112293Y0324180D02*
X0126132Y0324180D01*
X0098059Y0286236D02*
X0241900Y0286236D01*
X0241900Y0285238D02*
X0096243Y0285238D01*
X0096243Y0284239D02*
X0241900Y0284239D01*
X0241900Y0283241D02*
X0096243Y0283241D01*
X0090443Y0297220D02*
X0057500Y0297220D01*
X0057500Y0298218D02*
X0090443Y0298218D01*
X0090443Y0299217D02*
X0057500Y0299217D01*
X0057902Y0300215D02*
X0090443Y0300215D01*
X0090443Y0301214D02*
X0058445Y0301214D01*
X0058684Y0302212D02*
X0090443Y0302212D01*
X0090443Y0303211D02*
X0058684Y0303211D01*
X0058289Y0304210D02*
X0090443Y0304210D01*
X0090443Y0305208D02*
X0057526Y0305208D01*
X0090213Y0231318D02*
X0090787Y0231318D01*
X0090787Y0230320D02*
X0090213Y0230320D01*
X0090213Y0229321D02*
X0090787Y0229321D01*
X0090787Y0228323D02*
X0090213Y0228323D01*
X0090213Y0227236D02*
X0086225Y0227236D01*
X0086225Y0227187D01*
X0086330Y0226523D01*
X0086538Y0225883D01*
X0086844Y0225283D01*
X0087239Y0224739D01*
X0087715Y0224263D01*
X0088260Y0223867D01*
X0088859Y0223562D01*
X0089499Y0223354D01*
X0090164Y0223249D01*
X0090213Y0223249D01*
X0090213Y0227236D01*
X0090213Y0226326D02*
X0090787Y0226326D01*
X0090787Y0225327D02*
X0090213Y0225327D01*
X0090213Y0224329D02*
X0090787Y0224329D01*
X0090787Y0223330D02*
X0090213Y0223330D01*
X0089650Y0223330D02*
X0078069Y0223330D01*
X0079633Y0224329D02*
X0087650Y0224329D01*
X0086821Y0225327D02*
X0080434Y0225327D01*
X0080847Y0226326D02*
X0086394Y0226326D01*
X0039622Y0187384D02*
X0036500Y0187384D01*
X0036500Y0188382D02*
X0038505Y0188382D01*
X0037506Y0189381D02*
X0036500Y0189381D01*
X0036500Y0190379D02*
X0037043Y0190379D01*
X0036630Y0191378D02*
X0036500Y0191378D01*
X0036500Y0192376D02*
X0036600Y0192376D01*
X0036600Y0193375D02*
X0036500Y0193375D01*
X0036500Y0194373D02*
X0036921Y0194373D01*
X0037335Y0195372D02*
X0036500Y0195372D01*
X0036500Y0196370D02*
X0038210Y0196370D01*
X0038225Y0186385D02*
X0036500Y0186385D01*
X0036500Y0185387D02*
X0037341Y0185387D01*
X0084500Y0106209D02*
X0084500Y0101524D01*
X0089186Y0101524D01*
X0089072Y0102241D01*
X0088819Y0103020D01*
X0088447Y0103749D01*
X0087966Y0104411D01*
X0087388Y0104990D01*
X0086725Y0105471D01*
X0085996Y0105843D01*
X0085218Y0106096D01*
X0084500Y0106209D01*
X0084500Y0105506D02*
X0083500Y0105506D01*
X0083500Y0104507D02*
X0084500Y0104507D01*
X0084500Y0103509D02*
X0083500Y0103509D01*
X0083500Y0102510D02*
X0084500Y0102510D01*
X0084500Y0101512D02*
X0111000Y0101512D01*
X0111000Y0102510D02*
X0112000Y0102510D01*
X0112000Y0103509D02*
X0111000Y0103509D01*
X0111000Y0104507D02*
X0112000Y0104507D01*
X0112000Y0105506D02*
X0111000Y0105506D01*
X0108843Y0105506D02*
X0086657Y0105506D01*
X0087870Y0104507D02*
X0107630Y0104507D01*
X0106930Y0103509D02*
X0088570Y0103509D01*
X0088985Y0102510D02*
X0106515Y0102510D01*
X0106316Y0100513D02*
X0089184Y0100513D01*
X0089186Y0100524D02*
X0084500Y0100524D01*
X0084500Y0095838D01*
X0085218Y0095952D01*
X0085996Y0096205D01*
X0086725Y0096576D01*
X0087388Y0097057D01*
X0087966Y0097636D01*
X0088447Y0098298D01*
X0088819Y0099028D01*
X0089072Y0099806D01*
X0089186Y0100524D01*
X0088977Y0099515D02*
X0106523Y0099515D01*
X0106941Y0098516D02*
X0088558Y0098516D01*
X0087848Y0097518D02*
X0107652Y0097518D01*
X0108887Y0096519D02*
X0086613Y0096519D01*
X0084500Y0096519D02*
X0083500Y0096519D01*
X0083500Y0097518D02*
X0084500Y0097518D01*
X0084500Y0098516D02*
X0083500Y0098516D01*
X0083500Y0099515D02*
X0084500Y0099515D01*
X0084500Y0100513D02*
X0083500Y0100513D01*
X0080152Y0097518D02*
X0078131Y0097518D01*
X0078806Y0098516D02*
X0079441Y0098516D01*
X0081387Y0096519D02*
X0077132Y0096519D01*
X0078816Y0103509D02*
X0079430Y0103509D01*
X0080130Y0104507D02*
X0078153Y0104507D01*
X0077155Y0105506D02*
X0081343Y0105506D01*
X0111000Y0100513D02*
X0112000Y0100513D01*
X0112000Y0099515D02*
X0111000Y0099515D01*
X0111000Y0098516D02*
X0112000Y0098516D01*
X0112000Y0097518D02*
X0111000Y0097518D01*
X0111000Y0096519D02*
X0112000Y0096519D01*
X0114113Y0096519D02*
X0118368Y0096519D01*
X0117369Y0097518D02*
X0115348Y0097518D01*
X0116058Y0098516D02*
X0116694Y0098516D01*
X0116684Y0103509D02*
X0116070Y0103509D01*
X0115370Y0104507D02*
X0117347Y0104507D01*
X0118345Y0105506D02*
X0114157Y0105506D01*
X0124632Y0096519D02*
X0128368Y0096519D01*
X0127369Y0097518D02*
X0125631Y0097518D01*
X0126306Y0098516D02*
X0126694Y0098516D01*
X0134632Y0096519D02*
X0138368Y0096519D01*
X0137369Y0097518D02*
X0135631Y0097518D01*
X0136306Y0098516D02*
X0136694Y0098516D01*
X0144632Y0096519D02*
X0148368Y0096519D01*
X0147369Y0097518D02*
X0145631Y0097518D01*
X0146306Y0098516D02*
X0146694Y0098516D01*
X0187800Y0112495D02*
X0196200Y0112495D01*
X0195204Y0113494D02*
X0188796Y0113494D01*
X0189209Y0114492D02*
X0194791Y0114492D01*
X0194525Y0115491D02*
X0189475Y0115491D01*
X0189475Y0116489D02*
X0194525Y0116489D01*
X0194763Y0117488D02*
X0189237Y0117488D01*
X0188823Y0118486D02*
X0195177Y0118486D01*
X0196133Y0119485D02*
X0187867Y0119485D01*
X0212468Y0319187D02*
X0216772Y0319187D01*
X0214701Y0320186D02*
X0213400Y0320186D01*
X0213400Y0321184D02*
X0213703Y0321184D01*
X0213400Y0328174D02*
X0214013Y0328174D01*
X0213155Y0329172D02*
X0215112Y0329172D01*
X0220888Y0329172D02*
X0225670Y0329172D01*
X0224296Y0328174D02*
X0221987Y0328174D01*
X0222747Y0327175D02*
X0223515Y0327175D01*
X0223357Y0322183D02*
X0222875Y0322183D01*
X0222297Y0321184D02*
X0223999Y0321184D01*
X0225124Y0320186D02*
X0221299Y0320186D01*
X0219228Y0319187D02*
X0236772Y0319187D01*
X0234701Y0320186D02*
X0230876Y0320186D01*
X0232001Y0321184D02*
X0233703Y0321184D01*
X0233125Y0322183D02*
X0232643Y0322183D01*
X0232485Y0327175D02*
X0233253Y0327175D01*
X0234013Y0328174D02*
X0231704Y0328174D01*
X0230330Y0329172D02*
X0235112Y0329172D01*
X0240888Y0329172D02*
X0241900Y0329172D01*
X0241900Y0320186D02*
X0241299Y0320186D01*
X0241900Y0319187D02*
X0239228Y0319187D01*
X0228500Y0320186D02*
X0227500Y0320186D01*
X0227500Y0321184D02*
X0228500Y0321184D01*
X0228500Y0322183D02*
X0227500Y0322183D01*
X0227500Y0323181D02*
X0228500Y0323181D01*
X0228500Y0325178D02*
X0227500Y0325178D01*
X0227500Y0326177D02*
X0228500Y0326177D01*
X0228500Y0327175D02*
X0227500Y0327175D01*
X0227500Y0328174D02*
X0228500Y0328174D01*
X0228500Y0329172D02*
X0227500Y0329172D01*
X0192500Y0329172D02*
X0191500Y0329172D01*
X0191500Y0328174D02*
X0192500Y0328174D01*
X0192500Y0330171D02*
X0191500Y0330171D01*
X0191500Y0331169D02*
X0192500Y0331169D01*
X0192500Y0332168D02*
X0191500Y0332168D01*
X0191239Y0332168D02*
X0173692Y0332168D01*
X0175491Y0331169D02*
X0188859Y0331169D01*
X0187859Y0330171D02*
X0176490Y0330171D01*
X0176955Y0329172D02*
X0187259Y0329172D01*
X0186917Y0328174D02*
X0177369Y0328174D01*
D17*
X0211500Y0227524D02*
X0211500Y0116024D01*
X0199000Y0116024D01*
X0151500Y0101024D02*
X0151500Y0172524D01*
X0042000Y0172524D01*
X0042000Y0162524D02*
X0141500Y0162524D01*
X0141500Y0101024D01*
X0131500Y0101024D02*
X0131500Y0152524D01*
X0106500Y0152524D01*
X0042000Y0152524D01*
X0042000Y0142524D02*
X0121500Y0142524D01*
X0121500Y0101024D01*
X0076500Y0227524D02*
X0076500Y0263524D01*
X0093343Y0263524D01*
X0093343Y0291524D01*
X0093343Y0318524D01*
X0060000Y0318524D01*
X0060000Y0337524D01*
X0211500Y0227524D02*
X0232000Y0227524D01*
D18*
X0055000Y0302524D03*
D19*
X0055000Y0295524D01*
X0034000Y0295524D01*
X0034000Y0182524D01*
X0042000Y0182524D01*
M02*
