G75*
%MOIN*%
%OFA0B0*%
%FSLAX25Y25*%
%IPPOS*%
%LPD*%
%AMOC8*
5,1,8,0,0,1.08239X$1,22.5*
%
%ADD10C,0.00600*%
D10*
X0164800Y0148397D02*
X0164800Y0149464D01*
X0165868Y0150532D01*
X0171205Y0150532D01*
X0171205Y0151599D02*
X0171205Y0149464D01*
X0169070Y0153775D02*
X0171205Y0155910D01*
X0169070Y0158045D01*
X0164800Y0158045D01*
X0164800Y0160220D02*
X0171205Y0160220D01*
X0164800Y0164490D01*
X0171205Y0164490D01*
X0171205Y0166666D02*
X0165868Y0166666D01*
X0164800Y0167733D01*
X0164800Y0169868D01*
X0165868Y0170936D01*
X0171205Y0170936D01*
X0169070Y0173111D02*
X0171205Y0175246D01*
X0169070Y0177381D01*
X0164800Y0177381D01*
X0164800Y0179557D02*
X0171205Y0179557D01*
X0171205Y0182759D01*
X0170138Y0183827D01*
X0168003Y0183827D01*
X0166935Y0182759D01*
X0166935Y0179557D01*
X0166935Y0181692D02*
X0164800Y0183827D01*
X0164800Y0188137D02*
X0168003Y0188137D01*
X0170138Y0190272D01*
X0171205Y0190272D01*
X0168003Y0188137D02*
X0170138Y0186002D01*
X0171205Y0186002D01*
X0175300Y0190299D02*
X0175300Y0193502D01*
X0176368Y0194569D01*
X0180638Y0194569D01*
X0181705Y0193502D01*
X0181705Y0190299D01*
X0175300Y0190299D01*
X0176368Y0196745D02*
X0175300Y0197812D01*
X0175300Y0199947D01*
X0176368Y0201015D01*
X0180638Y0201015D01*
X0181705Y0199947D01*
X0181705Y0197812D01*
X0180638Y0196745D01*
X0176368Y0196745D01*
X0171205Y0199961D02*
X0171205Y0202096D01*
X0170138Y0203163D01*
X0169070Y0203163D01*
X0164800Y0198893D01*
X0164800Y0203163D01*
X0165868Y0205338D02*
X0170138Y0209609D01*
X0165868Y0209609D01*
X0164800Y0208541D01*
X0164800Y0206406D01*
X0165868Y0205338D01*
X0170138Y0205338D01*
X0171205Y0206406D01*
X0171205Y0208541D01*
X0170138Y0209609D01*
X0169070Y0211784D02*
X0171205Y0213919D01*
X0164800Y0213919D01*
X0164800Y0211784D02*
X0164800Y0216054D01*
X0165868Y0218229D02*
X0164800Y0219297D01*
X0164800Y0221432D01*
X0165868Y0222500D01*
X0170138Y0222500D01*
X0171205Y0221432D01*
X0171205Y0219297D01*
X0170138Y0218229D01*
X0169070Y0218229D01*
X0168003Y0219297D01*
X0168003Y0222500D01*
X0175300Y0220378D02*
X0181705Y0220378D01*
X0175300Y0224648D01*
X0181705Y0224648D01*
X0181705Y0218216D02*
X0181705Y0216081D01*
X0181705Y0217149D02*
X0175300Y0217149D01*
X0175300Y0218216D02*
X0175300Y0216081D01*
X0175300Y0213906D02*
X0179570Y0213906D01*
X0181705Y0211771D01*
X0179570Y0209635D01*
X0175300Y0209635D01*
X0175300Y0207460D02*
X0181705Y0207460D01*
X0179570Y0205325D01*
X0181705Y0203190D01*
X0175300Y0203190D01*
X0171205Y0199961D02*
X0170138Y0198893D01*
X0178503Y0209635D02*
X0178503Y0213906D01*
X0185800Y0206393D02*
X0185800Y0203190D01*
X0192205Y0203190D01*
X0192205Y0206393D01*
X0191138Y0207460D01*
X0186868Y0207460D01*
X0185800Y0206393D01*
X0185800Y0201015D02*
X0185800Y0196745D01*
X0192205Y0196745D01*
X0192205Y0194569D02*
X0192205Y0190299D01*
X0185800Y0190299D01*
X0185800Y0194569D01*
X0189003Y0192434D02*
X0189003Y0190299D01*
X0185800Y0188137D02*
X0185800Y0186002D01*
X0185800Y0187070D02*
X0192205Y0187070D01*
X0192205Y0188137D02*
X0192205Y0186002D01*
X0192205Y0183827D02*
X0185800Y0183827D01*
X0189003Y0183827D02*
X0189003Y0179557D01*
X0187935Y0177381D02*
X0186868Y0177381D01*
X0185800Y0176314D01*
X0185800Y0174179D01*
X0186868Y0173111D01*
X0189003Y0174179D02*
X0189003Y0176314D01*
X0187935Y0177381D01*
X0185800Y0179557D02*
X0192205Y0179557D01*
X0191138Y0177381D02*
X0192205Y0176314D01*
X0192205Y0174179D01*
X0191138Y0173111D01*
X0190070Y0173111D01*
X0189003Y0174179D01*
X0181705Y0174179D02*
X0175300Y0174179D01*
X0175300Y0175246D02*
X0175300Y0173111D01*
X0175300Y0170936D02*
X0175300Y0166666D01*
X0181705Y0166666D01*
X0180638Y0164490D02*
X0179570Y0164490D01*
X0178503Y0163423D01*
X0178503Y0160220D01*
X0176368Y0158045D02*
X0181705Y0158045D01*
X0181705Y0160220D02*
X0181705Y0163423D01*
X0180638Y0164490D01*
X0178503Y0163423D02*
X0177435Y0164490D01*
X0176368Y0164490D01*
X0175300Y0163423D01*
X0175300Y0160220D01*
X0181705Y0160220D01*
X0185800Y0161288D02*
X0185800Y0163423D01*
X0186868Y0164490D01*
X0191138Y0164490D01*
X0192205Y0163423D01*
X0192205Y0161288D01*
X0191138Y0160220D01*
X0186868Y0160220D01*
X0185800Y0161288D01*
X0185800Y0158045D02*
X0192205Y0158045D01*
X0192205Y0153775D02*
X0185800Y0158045D01*
X0185800Y0153775D02*
X0192205Y0153775D01*
X0192205Y0151599D02*
X0186868Y0151599D01*
X0185800Y0150532D01*
X0185800Y0148397D01*
X0186868Y0147329D01*
X0192205Y0147329D01*
X0181705Y0147329D02*
X0181705Y0150532D01*
X0180638Y0151599D01*
X0178503Y0151599D01*
X0177435Y0150532D01*
X0177435Y0147329D01*
X0175300Y0147329D02*
X0181705Y0147329D01*
X0181705Y0153775D02*
X0176368Y0153775D01*
X0175300Y0154842D01*
X0175300Y0156977D01*
X0176368Y0158045D01*
X0168003Y0158045D02*
X0168003Y0153775D01*
X0169070Y0153775D02*
X0164800Y0153775D01*
X0164800Y0148397D02*
X0165868Y0147329D01*
X0164800Y0173111D02*
X0169070Y0173111D01*
X0168003Y0173111D02*
X0168003Y0177381D01*
X0175300Y0178476D02*
X0175300Y0180611D01*
X0176368Y0181678D01*
X0175300Y0178476D02*
X0176368Y0177408D01*
X0180638Y0177408D01*
X0181705Y0178476D01*
X0181705Y0180611D01*
X0180638Y0181678D01*
X0181705Y0175246D02*
X0181705Y0173111D01*
M02*
